<?xml version="1.0" encoding="utf-8"?>
<!-- Generator: Adobe Illustrator 15.0.2, SVG Export Plug-In . SVG Version: 6.00 Build 0)  -->
<!DOCTYPE svg PUBLIC "-//W3C//DTD SVG 1.1//EN" "http://www.w3.org/Graphics/SVG/1.1/DTD/svg11.dtd">
<svg version="1.1" id="Layer_1" xmlns="http://www.w3.org/2000/svg" xmlns:xlink="http://www.w3.org/1999/xlink" x="0px" y="0px"
	 width="127.46px" height="38.858px" viewBox="0 0 127.46 38.858" enable-background="new 0 0 127.46 38.858" xml:space="preserve">
<g>
	<path fill-rule="evenodd" clip-rule="evenodd" d="M18.864,37.79v0.878h-0.421v-2.079h0.718c0.561,0,0.809,0.216,0.809,0.58
		c0,0.35-0.229,0.533-0.646,0.569c0.06,0.056,0.128,0.135,0.208,0.219l0.653,0.711h-0.528L18.864,37.79L18.864,37.79z
		 M18.865,37.525h0.255c0.292,0,0.459-0.13,0.459-0.344c0-0.21-0.168-0.313-0.474-0.313h-0.24V37.525L18.865,37.525z"/>
	<path fill-rule="evenodd" clip-rule="evenodd" d="M31.159,37.79v0.878h-0.421v-2.079h0.718c0.56,0,0.808,0.216,0.808,0.58
		c0,0.35-0.23,0.533-0.646,0.569c0.061,0.056,0.129,0.135,0.208,0.219l0.653,0.711h-0.528L31.159,37.79L31.159,37.79z M31.16,37.525
		h0.255c0.292,0,0.46-0.13,0.46-0.344c0-0.21-0.169-0.313-0.475-0.313h-0.24V37.525L31.16,37.525z"/>
	<path fill-rule="evenodd" clip-rule="evenodd" d="M46.292,37.788v0.878h-0.42v-2.077h0.716c0.562,0,0.809,0.214,0.809,0.579
		c0,0.351-0.229,0.532-0.646,0.567c0.06,0.057,0.129,0.137,0.208,0.219l0.654,0.712h-0.529L46.292,37.788L46.292,37.788z
		 M46.294,37.523h0.255c0.292,0,0.459-0.129,0.459-0.343c0-0.211-0.168-0.313-0.473-0.313h-0.241V37.523L46.294,37.523z"/>
	<path fill-rule="evenodd" clip-rule="evenodd" d="M110.535,37.788v0.878h-0.422v-2.077h0.719c0.561,0,0.81,0.214,0.81,0.579
		c0,0.351-0.229,0.532-0.647,0.567c0.061,0.057,0.13,0.137,0.209,0.219l0.654,0.712h-0.529L110.535,37.788L110.535,37.788z
		 M110.537,37.523h0.254c0.292,0,0.459-0.129,0.459-0.343c0-0.211-0.168-0.313-0.474-0.313h-0.239V37.523L110.537,37.523z"/>
	<path fill-rule="evenodd" clip-rule="evenodd" d="M28.767,38.695c-0.783,0-1.149-0.433-1.149-1.043
		c0-0.684,0.565-1.086,1.224-1.086c0.709,0,1.163,0.362,1.163,1.045C30.004,38.301,29.448,38.695,28.767,38.695L28.767,38.695z
		 M28.809,36.876c-0.395,0-0.742,0.258-0.742,0.743c0,0.42,0.199,0.763,0.728,0.763c0.422,0,0.756-0.247,0.756-0.739
		C29.55,37.142,29.263,36.876,28.809,36.876L28.809,36.876z"/>
	<path fill-rule="evenodd" clip-rule="evenodd" d="M37.452,38.695c-0.783,0-1.148-0.433-1.148-1.043
		c0-0.684,0.565-1.086,1.223-1.086c0.708,0,1.162,0.362,1.162,1.045C38.688,38.301,38.133,38.695,37.452,38.695L37.452,38.695z
		 M37.494,36.876c-0.394,0-0.741,0.258-0.741,0.743c0,0.42,0.199,0.763,0.727,0.763c0.422,0,0.755-0.247,0.755-0.739
		C38.235,37.142,37.948,36.876,37.494,36.876L37.494,36.876z"/>
	<path fill-rule="evenodd" clip-rule="evenodd" d="M91.14,38.694c-0.783,0-1.15-0.435-1.15-1.047c0-0.682,0.566-1.084,1.224-1.084
		c0.71,0,1.163,0.362,1.163,1.045C92.376,38.299,91.82,38.694,91.14,38.694L91.14,38.694z M91.18,36.874
		c-0.394,0-0.74,0.258-0.74,0.743c0,0.422,0.199,0.763,0.728,0.763c0.422,0,0.756-0.247,0.756-0.739
		C91.923,37.139,91.634,36.874,91.18,36.874L91.18,36.874z"/>
	<path fill-rule="evenodd" clip-rule="evenodd" d="M96.388,38.666v-2.076h0.981c0.709,0,1.163,0.356,1.163,1.019
		c0,0.673-0.559,1.058-1.237,1.058H96.388L96.388,38.666z M96.813,36.87v1.503h0.508c0.422,0,0.757-0.255,0.757-0.732
		c0-0.485-0.289-0.771-0.743-0.771H96.813L96.813,36.87z"/>
	<path fill-rule="evenodd" clip-rule="evenodd" d="M77.17,38.691c-0.783,0-1.148-0.432-1.148-1.044c0-0.682,0.564-1.085,1.224-1.085
		c0.708,0,1.162,0.361,1.162,1.046c0,0.38-0.167,0.671-0.433,0.854c0,0,0.134,0.032,0.328,0.054
		c0.332,0.035,0.533,0.002,0.533,0.002v0.318c0,0-0.23,0.033-0.388,0.02c-0.374-0.032-0.858-0.147-0.972-0.151
		C77.362,38.699,77.17,38.691,77.17,38.691L77.17,38.691z M77.212,36.873c-0.394,0-0.741,0.259-0.741,0.742
		c0,0.422,0.2,0.763,0.729,0.763c0.421,0,0.754-0.246,0.754-0.737C77.953,37.139,77.666,36.873,77.212,36.873L77.212,36.873z"/>
	<polygon fill-rule="evenodd" clip-rule="evenodd" points="26.92,36.588 27.36,36.588 26.508,37.942 26.508,38.667 26.086,38.667 
		26.086,37.947 25.247,36.588 25.715,36.588 26.314,37.525 26.92,36.588 	"/>
	<polygon fill-rule="evenodd" clip-rule="evenodd" points="65.085,36.587 65.525,36.587 64.674,37.941 64.674,38.667 64.252,38.667 
		64.252,37.945 63.413,36.587 63.88,36.587 64.479,37.523 65.085,36.587 	"/>
	<path fill-rule="evenodd" clip-rule="evenodd" d="M14.018,37.961v0.706h-0.421l-0.001-2.079h0.738c0.583,0,0.884,0.248,0.884,0.648
		c0,0.445-0.365,0.727-0.977,0.727L14.018,37.961L14.018,37.961z M14.015,37.657h0.234c0.356,0,0.561-0.141,0.561-0.41
		c0-0.223-0.175-0.381-0.523-0.381h-0.272V37.657L14.015,37.657z"/>
	<polygon fill-rule="evenodd" clip-rule="evenodd" points="23.34,38.666 23.34,36.588 24.703,36.588 24.703,36.873 23.762,36.873 
		23.762,37.459 24.647,37.459 24.647,37.735 23.762,37.735 23.762,38.374 24.703,38.374 24.703,38.666 23.34,38.666 	"/>
	<polygon fill-rule="evenodd" clip-rule="evenodd" points="43.785,38.665 43.785,36.587 45.147,36.587 45.147,36.87 44.207,36.87 
		44.207,37.458 45.092,37.458 45.092,37.734 44.207,37.734 44.207,38.373 45.147,38.373 45.147,38.665 43.785,38.665 	"/>
	<polygon fill-rule="evenodd" clip-rule="evenodd" points="57.522,38.665 57.522,36.587 58.885,36.587 58.885,36.871 57.943,36.871 
		57.943,37.458 58.828,37.458 58.828,37.734 57.943,37.734 57.943,38.374 58.885,38.374 58.885,38.665 57.522,38.665 	"/>
	<polygon fill-rule="evenodd" clip-rule="evenodd" points="99.172,38.665 99.172,36.587 100.534,36.587 100.534,36.871 
		99.594,36.871 99.594,37.458 100.479,37.458 100.479,37.734 99.594,37.734 99.594,38.374 100.534,38.374 100.534,38.665 
		99.172,38.665 	"/>
	<polygon fill-rule="evenodd" clip-rule="evenodd" points="81.731,38.665 81.731,36.587 83.094,36.587 83.094,36.87 82.153,36.87 
		82.153,37.458 83.038,37.458 83.038,37.734 82.153,37.734 82.153,38.373 83.094,38.373 83.094,38.665 81.731,38.665 	"/>
	<polygon fill-rule="evenodd" clip-rule="evenodd" points="83.822,38.665 83.822,36.587 85.186,36.587 85.186,36.87 84.244,36.87 
		84.244,37.458 85.129,37.458 85.129,37.734 84.244,37.734 84.244,38.373 85.186,38.373 85.186,38.665 83.822,38.665 	"/>
	<polygon fill-rule="evenodd" clip-rule="evenodd" points="72.358,38.665 72.358,36.587 73.72,36.587 73.72,36.871 72.78,36.871 
		72.78,37.458 73.666,37.458 73.666,37.734 72.78,37.734 72.78,38.374 73.72,38.374 73.72,38.665 72.358,38.665 	"/>
	<polygon fill-rule="evenodd" clip-rule="evenodd" points="93.034,38.665 93.034,36.587 94.398,36.587 94.398,36.871 93.457,36.871 
		93.457,37.458 94.343,37.458 94.343,37.734 93.457,37.734 93.457,38.665 93.034,38.665 	"/>
	<polygon fill-rule="evenodd" clip-rule="evenodd" points="86.296,38.666 85.888,38.666 85.888,36.589 86.444,36.589 87.602,38.174 
		87.603,36.589 88.015,36.589 88.015,38.666 87.459,38.666 86.296,37.061 86.296,38.666 	"/>
	<polygon fill-rule="evenodd" clip-rule="evenodd" points="101.657,38.666 101.248,38.666 101.248,36.589 101.805,36.589 
		102.962,38.174 102.962,36.589 103.375,36.589 103.375,38.666 102.82,38.666 101.657,37.061 101.657,38.666 	"/>
	<path fill-rule="evenodd" clip-rule="evenodd" d="M55.031,38.666l-0.19-0.434h-1.071l-0.19,0.434h-0.427l0.943-2.078h0.47
		l0.932,2.078H55.031L55.031,38.666z M54.311,36.985l-0.423,0.981h0.843L54.311,36.985L54.311,36.985z"/>
	<path fill-rule="evenodd" clip-rule="evenodd" d="M15.836,36.588h0.41v1.326c0,0,0.014,0.465,0.526,0.465
		c0.511,0,0.509-0.458,0.509-0.458v-1.332h0.41v1.367c0,0,0.042,0.74-0.929,0.74c-0.972,0-0.925-0.735-0.925-0.735V36.588
		L15.836,36.588z"/>
	<path fill-rule="evenodd" clip-rule="evenodd" d="M79.065,36.588h0.411v1.326c0,0,0.014,0.465,0.523,0.465
		c0.513,0,0.51-0.458,0.51-0.458v-1.333h0.409v1.368c0,0,0.043,0.74-0.929,0.74c-0.974,0-0.925-0.735-0.925-0.735V36.588
		L79.065,36.588z"/>
	<polygon fill-rule="evenodd" clip-rule="evenodd" points="20.397,36.589 20.861,36.589 21.595,38.188 22.336,36.588 22.775,36.588 
		21.817,38.668 21.345,38.668 20.397,36.589 	"/>
	<polygon fill-rule="evenodd" clip-rule="evenodd" points="34.907,38.665 35.33,38.665 35.33,36.87 36.033,36.87 36.033,36.588 
		34.205,36.588 34.205,36.87 34.905,36.87 34.907,38.665 	"/>
	<polygon fill-rule="evenodd" clip-rule="evenodd" points="62.124,38.665 62.547,38.665 62.547,36.87 63.25,36.87 63.25,36.588 
		61.422,36.588 61.422,36.87 62.123,36.87 62.124,38.665 	"/>
	<polygon fill-rule="evenodd" clip-rule="evenodd" points="67.994,38.665 68.418,38.665 68.418,36.87 69.121,36.87 69.121,36.588 
		67.292,36.588 67.292,36.87 67.994,36.87 67.994,38.665 	"/>
	<polygon fill-rule="evenodd" clip-rule="evenodd" points="42.511,38.665 42.511,37.734 41.367,37.734 41.367,38.665 40.946,38.665 
		40.946,36.587 41.367,36.587 41.367,37.446 42.511,37.446 42.511,36.587 42.933,36.587 42.933,38.665 42.511,38.665 	"/>
	<polygon fill-rule="evenodd" clip-rule="evenodd" points="71.122,38.665 71.122,37.734 69.978,37.734 69.978,38.665 69.557,38.665 
		69.557,36.587 69.978,36.587 69.978,37.446 71.122,37.446 71.122,36.587 71.544,36.587 71.544,38.665 71.122,38.665 	"/>
	<polygon fill-rule="evenodd" clip-rule="evenodd" points="49.656,38.667 50.044,38.667 50.354,37.01 50.997,38.666 51.396,38.666 
		52.036,37.011 52.344,38.667 52.739,38.667 52.378,36.588 51.823,36.588 51.196,38.21 50.566,36.587 50.012,36.587 49.656,38.667 	
		"/>
	<polygon fill-rule="evenodd" clip-rule="evenodd" points="104.013,38.667 104.402,38.667 104.711,37.01 105.355,38.666 
		105.753,38.666 106.394,37.011 106.702,38.667 107.096,38.667 106.735,36.588 106.182,36.588 105.553,38.21 104.924,36.587 
		104.37,36.587 104.013,38.667 	"/>
	<path fill-rule="evenodd" clip-rule="evenodd" d="M60.131,38.691c-0.178,0-0.388-0.023-0.522-0.052v-0.344
		c0.145,0.055,0.364,0.092,0.575,0.092c0.256,0,0.512-0.089,0.512-0.325c0-0.405-1.144-0.207-1.144-0.864
		c0-0.373,0.355-0.616,0.973-0.616c0.144,0,0.339,0.01,0.479,0.035l-0.001,0.329c-0.132-0.036-0.354-0.078-0.503-0.078
		c-0.345,0-0.535,0.114-0.535,0.29c0,0.397,1.185,0.217,1.185,0.865C61.15,38.492,60.716,38.691,60.131,38.691L60.131,38.691z"/>
	<path fill-rule="evenodd" clip-rule="evenodd" d="M109.194,38.666l-0.189-0.434h-1.071l-0.19,0.434h-0.426l0.943-2.078h0.467
		l0.934,2.078H109.194L109.194,38.666z M108.475,36.985l-0.423,0.981h0.842L108.475,36.985L108.475,36.985z"/>
	<polygon fill-rule="evenodd" clip-rule="evenodd" points="113.466,36.588 112.748,37.521 112.748,36.587 112.324,36.587 
		112.324,38.662 112.746,38.662 112.746,37.793 113.538,38.667 114.063,38.667 113.136,37.663 113.993,36.588 113.466,36.588 	"/>
	<path fill-rule="evenodd" clip-rule="evenodd" d="M56.291,36.588h0.426c0,0,0,1.401,0,1.45c0,0.047,0.02,0.408-0.197,0.557
		c-0.146,0.1-0.329,0.096-0.329,0.096h-0.337v-0.324h0.065c0,0,0.202,0.016,0.286-0.069c0.095-0.097,0.086-0.269,0.086-0.269V36.588
		L56.291,36.588z"/>
	<path fill-rule="evenodd" clip-rule="evenodd" d="M1.419,30.715v2.954H0l0.001-6.994h2.417c1.888,0,2.723,0.722,2.723,1.95
		c0,1.177-0.772,1.794-2.176,1.915c0.203,0.186,0.437,0.454,0.702,0.734l2.2,2.395H4.088L1.419,30.715L1.419,30.715z M1.422,29.825
		H2.28c0.983,0,1.547-0.436,1.547-1.157c0-0.708-0.568-1.057-1.597-1.057H1.422V29.825L1.422,29.825z"/>
	<path fill-rule="evenodd" clip-rule="evenodd" d="M10.688,33.775c-2.638,0-3.869-1.457-3.869-3.518c0-2.298,1.902-3.65,4.118-3.65
		c2.387,0,3.916,1.217,3.916,3.518C14.854,32.452,12.981,33.775,10.688,33.775L10.688,33.775z M10.828,27.652
		c-1.326,0-2.496,0.868-2.496,2.499c0,1.419,0.671,2.568,2.45,2.568c1.419,0,2.543-0.829,2.543-2.486
		C13.325,28.547,12.357,27.652,10.828,27.652L10.828,27.652z"/>
	<polygon fill-rule="evenodd" clip-rule="evenodd" points="21.293,26.666 22.775,26.666 19.905,31.226 19.905,33.669 18.485,33.669 
		18.485,31.239 15.661,26.666 17.238,26.666 19.254,29.819 21.293,26.666 	"/>
	<path fill-rule="evenodd" clip-rule="evenodd" d="M28.783,33.669l-0.64-1.458h-3.604L23.9,33.669h-1.436l3.174-7h1.579l3.143,7
		H28.783L28.783,33.669z M26.359,28.009l-1.425,3.308h2.84L26.359,28.009L26.359,28.009z"/>
	<polygon fill-rule="evenodd" clip-rule="evenodd" points="32.181,33.669 32.181,26.669 33.601,26.669 33.601,32.625 36.502,32.625 
		36.502,33.669 32.181,33.669 	"/>
	<path fill-rule="evenodd" clip-rule="evenodd" d="M53.165,33.775c-2.638,0-3.869-1.457-3.869-3.518c0-2.298,1.903-3.65,4.119-3.65
		c2.387,0,3.915,1.217,3.915,3.518C57.33,32.452,55.459,33.775,53.165,33.775L53.165,33.775z M53.306,27.652
		c-1.327,0-2.496,0.868-2.496,2.499c0,1.419,0.67,2.568,2.45,2.568c1.418,0,2.542-0.829,2.542-2.486
		C55.802,28.547,54.834,27.652,53.306,27.652L53.306,27.652z"/>
	<path fill-rule="evenodd" clip-rule="evenodd" d="M61.159,31.297v2.372h-1.42l0-6.994h2.481c1.966,0,2.978,0.83,2.978,2.179
		c0,1.498-1.23,2.447-3.29,2.447L61.159,31.297L61.159,31.297z M61.149,30.27h0.789c1.202,0,1.888-0.475,1.888-1.382
		c0-0.75-0.593-1.285-1.762-1.285h-0.915V30.27L61.149,30.27z"/>
	<polygon fill-rule="evenodd" clip-rule="evenodd" points="67.396,33.669 67.396,26.672 71.985,26.672 71.985,27.627 68.817,27.627 
		68.817,29.607 71.797,29.607 71.797,30.535 68.817,30.535 68.817,32.687 71.985,32.687 71.985,33.669 67.396,33.669 	"/>
	<polygon fill-rule="evenodd" clip-rule="evenodd" points="112.956,33.647 112.956,26.651 117.545,26.651 117.545,27.606 
		114.377,27.606 114.377,29.584 117.358,29.584 117.358,30.511 114.377,30.511 114.377,32.665 117.545,32.665 117.545,33.647 
		112.956,33.647 	"/>
	<polygon fill-rule="evenodd" clip-rule="evenodd" points="80.568,26.684 81.958,26.684 81.958,33.669 80.089,33.669 76.172,28.269 
		76.17,28.31 76.17,33.669 74.796,33.669 74.796,26.684 76.668,26.684 80.567,32.019 80.568,26.684 	"/>
	<polygon fill-rule="evenodd" clip-rule="evenodd" points="126.072,26.684 127.46,26.684 127.46,33.669 125.592,33.669 
		121.676,28.269 121.672,28.31 121.672,33.669 120.3,33.669 120.3,26.684 122.173,26.684 126.071,32.019 126.072,26.684 	"/>
	<polygon fill-rule="evenodd" clip-rule="evenodd" points="90.433,33.669 90.433,30.535 86.583,30.535 86.583,33.669 85.163,33.669 
		85.163,26.677 86.583,26.677 86.583,29.563 90.433,29.563 90.433,26.677 91.852,26.677 91.852,33.669 90.433,33.669 	"/>
	<path fill-rule="evenodd" clip-rule="evenodd" d="M107.185,33.775c-2.434,0-4.164-1.202-4.164-3.449
		c0-2.087,1.668-3.704,4.476-3.704c0.828,0,1.621,0.09,2.449,0.303v1.165c-0.749-0.289-1.699-0.464-2.463-0.464
		c-1.608,0-2.965,0.868-2.965,2.581c0,1.618,1.154,2.5,2.84,2.5c0.482,0,0.967-0.055,1.343-0.161V30.27h1.419v3.052
		C109.215,33.615,108.262,33.775,107.185,33.775L107.185,33.775z"/>
	<path fill-rule="evenodd" clip-rule="evenodd" d="M100.103,33.669l-0.64-1.458h-3.604l-0.641,1.458h-1.435l3.173-7h1.579l3.143,7
		H100.103L100.103,33.669z M97.679,28.009l-1.425,3.308h2.84L97.679,28.009L97.679,28.009z"/>
	<path fill-rule="evenodd" clip-rule="evenodd" d="M45.457,33.754c-2.632-0.024-3.98-1.217-3.98-3.484
		c0-2.296,1.903-3.562,4.233-3.616c0.73-0.016,1.748,0.198,1.748,0.198v1.052c0,0-1.164-0.283-1.844-0.245
		c-1.511,0.083-2.583,0.869-2.583,2.504c0,1.662,0.958,2.531,2.54,2.531c0.813,0,1.976-0.324,1.976-0.324v1.093
		C47.547,33.462,46.645,33.767,45.457,33.754L45.457,33.754z"/>
	<path fill-rule="evenodd" clip-rule="evenodd" fill="#002F65" d="M48.943,15.239v1.159c0,0,2.059,1.158,4.813,1.158
		c2.754,0,5.075-1.239,5.075-1.239s1.855,1.212,5.306,1.212c2.727,0,4.611-1.239,4.611-1.239s2.116,1.266,5.307,1.266
		c2.61,0,4.553-1.158,4.553-1.158v-1.131c0,0-2.088,1.211-4.64,1.211c-3.133,0-5.162-1.373-5.162-1.373s-2.64,1.428-4.784,1.428
		c-2.726,0-5.191-1.428-5.191-1.428s-2.118,1.373-5.017,1.373C50.915,16.478,48.943,15.239,48.943,15.239L48.943,15.239z"/>
	<path fill-rule="evenodd" clip-rule="evenodd" fill="#002F65" d="M48.943,18.103v1.158c0,0,2.059,1.158,4.813,1.158
		c2.754,0,5.075-1.238,5.075-1.238s1.855,1.212,5.306,1.212c2.727,0,4.611-1.238,4.611-1.238s2.116,1.265,5.307,1.265
		c2.61,0,4.553-1.158,4.553-1.158V18.13c0,0-2.088,1.212-4.64,1.212c-3.133,0-5.162-1.374-5.162-1.374s-2.64,1.429-4.784,1.429
		c-2.726,0-5.191-1.429-5.191-1.429s-2.118,1.374-5.017,1.374C50.915,19.342,48.943,18.103,48.943,18.103L48.943,18.103z"/>
	<path fill-rule="evenodd" clip-rule="evenodd" fill="#002F65" d="M48.943,20.965v1.16c0,0,2.059,1.157,4.813,1.157
		c2.754,0,5.075-1.238,5.075-1.238s1.855,1.213,5.306,1.213c2.727,0,4.611-1.241,4.611-1.241s2.116,1.267,5.307,1.267
		c2.61,0,4.553-1.157,4.553-1.157v-1.132c0,0-2.088,1.212-4.64,1.212c-3.133,0-5.162-1.373-5.162-1.373s-2.64,1.427-4.784,1.427
		c-2.726,0-5.191-1.427-5.191-1.427s-2.118,1.373-5.017,1.373C50.915,22.206,48.943,20.965,48.943,20.965L48.943,20.965z"/>
	<path fill-rule="evenodd" clip-rule="evenodd" d="M71.633,5.908c0.074-0.076,0.121-0.181,0.121-0.295
		c0-0.146-0.075-0.274-0.188-0.349l0,0c0.042-0.066,0.067-0.143,0.067-0.226c0-0.202-0.144-0.369-0.333-0.408l0.005-0.015
		c0.007-0.027,0.01-0.055,0.01-0.084c0-0.23-0.188-0.417-0.416-0.417c-0.034,0-0.065,0.005-0.097,0.011l-0.001-0.007
		C70.747,3.951,70.59,3.83,70.405,3.83c-0.063,0-0.124,0.015-0.179,0.041l-0.005-0.006c-0.074-0.111-0.2-0.184-0.345-0.184
		c-0.086,0-0.167,0.027-0.23,0.072l-0.01-0.007C69.571,3.7,69.49,3.675,69.404,3.675c-0.138,0-0.256,0.064-0.334,0.166
		c-0.07-0.062-0.165-0.1-0.27-0.1c-0.045,0-0.088,0.007-0.128,0.021c-0.032-0.199-0.204-0.35-0.411-0.35
		c-0.043,0-0.084,0.007-0.121,0.018l-0.005-0.003c0-0.23-0.188-0.417-0.418-0.417c-0.117,0-0.225,0.051-0.3,0.129l-0.003-0.006
		c-0.075-0.11-0.203-0.184-0.345-0.184c-0.156,0-0.29,0.085-0.362,0.209L66.705,3.16c-0.068-0.052-0.154-0.083-0.249-0.083
		c-0.162,0-0.302,0.092-0.372,0.228l-0.019,0c-0.025-0.006-0.054-0.008-0.081-0.008c-0.148,0-0.277,0.076-0.352,0.192
		c-0.034-0.01-0.071-0.015-0.108-0.015c-0.145,0-0.271,0.075-0.346,0.186L65.17,3.659C65.104,3.616,65.024,3.59,64.94,3.59
		c-0.03,0-0.06,0.003-0.086,0.01l-0.003-0.016c0.015-0.041,0.027-0.083,0.037-0.128l0.001,0.002c0.076-0.052,0.125-0.141,0.125-0.24
		c0-0.09-0.04-0.171-0.105-0.224v0.002c-0.054-0.386-0.279-0.717-0.599-0.911l0.001,0.007c-0.03-0.131-0.104-0.207-0.227-0.244
		c0.001-0.062-0.002-0.241-0.002-0.241l0.279-0.002c0,0.161,0.131,0.291,0.292,0.291c0.143,0,0.265-0.107,0.286-0.246l0.005,0
		c0.132-0.027,0.231-0.145,0.231-0.285c0-0.144-0.104-0.265-0.243-0.287l0.005,0.001c-0.028-0.132-0.146-0.232-0.284-0.232
		c-0.152,0-0.279,0.118-0.291,0.267h-0.28V0.809h0.006c0.132-0.028,0.229-0.144,0.229-0.283c0-0.143-0.101-0.261-0.234-0.286
		l-0.011-0.007C64.047,0.101,63.931,0.001,63.792,0h-0.006c-0.139,0.001-0.254,0.101-0.282,0.232l-0.01,0.007
		c-0.134,0.025-0.235,0.144-0.235,0.286c0,0.139,0.098,0.255,0.23,0.283h0.005v0.307h-0.28c-0.013-0.149-0.139-0.267-0.29-0.267
		c-0.139,0-0.258,0.1-0.285,0.232l0.003-0.001c-0.138,0.022-0.244,0.143-0.244,0.287c0,0.141,0.1,0.258,0.232,0.285l0.006,0
		c0.021,0.139,0.142,0.246,0.287,0.246c0.16,0,0.291-0.13,0.291-0.291l0.28,0.002c0,0-0.001,0.178-0.001,0.241
		c-0.122,0.037-0.195,0.113-0.228,0.244l0.001-0.007c-0.32,0.194-0.545,0.524-0.598,0.911V2.995
		c-0.065,0.053-0.106,0.133-0.106,0.224c0,0.099,0.05,0.188,0.126,0.24V3.456c0.01,0.044,0.022,0.087,0.037,0.128l0,0.016
		c-0.029-0.006-0.058-0.01-0.088-0.01c-0.084,0-0.163,0.026-0.229,0.069L62.399,3.66c-0.075-0.111-0.202-0.186-0.348-0.186
		c-0.036,0-0.073,0.005-0.108,0.015c-0.072-0.116-0.202-0.192-0.35-0.192c-0.028,0-0.056,0.002-0.083,0.008l-0.018,0
		c-0.07-0.136-0.209-0.228-0.372-0.228c-0.093,0-0.18,0.03-0.249,0.083l-0.003-0.002c-0.071-0.125-0.207-0.209-0.361-0.209
		c-0.144,0-0.271,0.074-0.345,0.184L60.16,3.138c-0.076-0.079-0.184-0.129-0.302-0.129c-0.231,0-0.416,0.187-0.416,0.417
		l-0.004,0.003c-0.039-0.011-0.08-0.018-0.122-0.018c-0.208,0-0.38,0.151-0.412,0.35c-0.04-0.013-0.084-0.021-0.128-0.021
		c-0.104,0-0.197,0.038-0.27,0.1c-0.077-0.101-0.197-0.166-0.333-0.166c-0.086,0-0.166,0.025-0.234,0.071l-0.007,0.007
		c-0.066-0.045-0.147-0.072-0.232-0.072c-0.144,0-0.271,0.073-0.345,0.184l-0.004,0.006c-0.054-0.026-0.115-0.041-0.179-0.041
		c-0.185,0-0.341,0.121-0.396,0.288l-0.002,0.007c-0.031-0.006-0.062-0.011-0.095-0.011c-0.23,0-0.417,0.187-0.417,0.417
		c0,0.029,0.003,0.057,0.01,0.084l0.006,0.015c-0.19,0.039-0.333,0.207-0.333,0.408c0,0.083,0.024,0.16,0.067,0.226H56.01
		c-0.112,0.075-0.187,0.203-0.187,0.349c0,0.114,0.047,0.219,0.121,0.295l-0.002,0.003c-0.052,0.059-0.083,0.136-0.083,0.221
		c0,0.133,0.077,0.248,0.188,0.303l0.001,0.001c-0.018,0.042-0.027,0.087-0.027,0.135c0,0.149,0.096,0.275,0.23,0.321l0.001-0.001
		c-0.018,0.042-0.028,0.087-0.028,0.136c0,0.144,0.09,0.266,0.216,0.315c-0.004,0.022-0.007,0.045-0.007,0.07
		c0,0.158,0.109,0.291,0.256,0.327l0.011,0.019c-0.021,0.043-0.034,0.089-0.034,0.141c0,0.166,0.135,0.301,0.301,0.301
		c0.068,0,0.131-0.022,0.182-0.06l0.002,0.006c0.202,0.121,0.33,0.334,0.44,0.537v0.02c-0.031,0.05-0.048,0.109-0.048,0.172
		c0,0.186,0.151,0.337,0.338,0.337c0.014,0,0.028-0.001,0.043-0.002c0,0,0.376,0.494,0.583,0.711h0
		c-0.064,0.055-0.103,0.137-0.103,0.228c0,0.156,0.117,0.284,0.269,0.302l0.043,0.244c-0.062,0.1-0.099,0.218-0.102,0.344
		c-0.003,0.27,0.148,0.514,0.375,0.628c0,0,0,0,0.005,0.298c0,0-0.134,0.068-0.177,0.138c-0.028,0.047-0.044,0.102-0.047,0.16
		c-0.002,0.123,0.068,0.231,0.17,0.286c0,0,0.133,0.102,0.479,0.147c1.132,0.151,2.254,0.212,3.434,0.251
		c0.307,0.005,0.618,0.008,0.93,0.008h0.01c0.313,0,0.623-0.003,0.929-0.008c1.18-0.04,2.302-0.1,3.434-0.251
		c0.347-0.046,0.479-0.147,0.479-0.147c0.103-0.054,0.171-0.163,0.169-0.286c0-0.059-0.017-0.113-0.046-0.16
		c-0.041-0.069-0.178-0.138-0.178-0.138c0.007-0.298,0.007-0.298,0.007-0.298c0.225-0.114,0.377-0.358,0.373-0.628
		c-0.003-0.126-0.039-0.244-0.101-0.344l0.042-0.244c0.152-0.018,0.27-0.146,0.27-0.302c0-0.091-0.039-0.173-0.103-0.228h-0.002
		c0.207-0.217,0.584-0.711,0.584-0.711c0.015,0.001,0.029,0.002,0.044,0.002c0.185,0,0.336-0.151,0.336-0.337
		c0-0.062-0.016-0.122-0.046-0.172v-0.02c0.108-0.203,0.236-0.417,0.438-0.537l0.005-0.006c0.051,0.038,0.112,0.06,0.18,0.06
		c0.166,0,0.302-0.136,0.302-0.301c0-0.052-0.013-0.098-0.034-0.141l0.01-0.019c0.147-0.037,0.257-0.169,0.257-0.327
		c0-0.025-0.002-0.048-0.007-0.07c0.127-0.05,0.217-0.172,0.217-0.315c0-0.049-0.01-0.094-0.029-0.136l0.003,0.001
		c0.134-0.045,0.231-0.172,0.231-0.321c0-0.047-0.011-0.093-0.029-0.135l0.002-0.001c0.11-0.055,0.188-0.17,0.188-0.303
		c0-0.085-0.03-0.162-0.083-0.221L71.633,5.908L71.633,5.908z M68.756,6.281c0.057-0.079,0.024-0.203,0.006-0.298
		c0.036-0.035,0.094-0.066,0.133-0.115c0.061-0.076,0.073-0.223,0.028-0.311c-0.046-0.054,0.011-0.122,0.056-0.15
		c0.092-0.055,0.218,0.049,0.34,0.008c0.119,0.127,0.255,0.235,0.446,0.199c0.07,0.047,0.147,0.1,0.208,0.145
		c0,0,0.015,0.013,0,0.042c-0.056,0.097,0.034,0.247-0.01,0.366c-0.059,0.164-0.037,0.313,0.01,0.473
		c-0.058,0.148-0.114,0.291-0.123,0.45c-0.015,0.068,0.007,0.094,0.003,0.175c-0.104-0.009-0.24,0.017-0.33,0.063
		c-0.029-0.058-0.078-0.12-0.136-0.153c-0.184-0.113-0.345-0.233-0.565-0.307c-0.139-0.042-0.219-0.04-0.311-0.059
		c-0.12-0.047,0.146-0.162,0.099-0.312C68.522,6.368,68.72,6.367,68.756,6.281L68.756,6.281z M68.389,8.796
		c-0.046,0.008-0.078,0-0.124-0.008c0.061-0.152,0.134-0.304,0.151-0.474c0.039-0.188-0.032-0.379-0.153-0.482
		c0.026-0.046,0.032-0.098,0.048-0.146c0.025-0.174-0.014-0.299-0.123-0.418C68.123,7.208,67.99,7.129,68.08,7.07
		c0.107-0.04,0.338,0.016,0.338,0.016c0.428,0.073,0.69,0.246,0.92,0.504c0.002,0.008,0.017,0.008,0.017,0.021
		c-0.03,0.036-0.054,0.075-0.097,0.139c-0.081-0.036-0.178-0.075-0.266-0.06C68.619,7.801,68.354,8.494,68.389,8.796L68.389,8.796z
		 M64.925,4.089c0.027-0.054,0.087-0.065,0.138-0.074c0.377-0.07,0.761-0.173,1.116-0.296c0.43-0.178,0.92-0.313,1.385-0.184
		c0.03,0.013,0.075,0.024,0.103,0.036c0.559,0.173,0.813,0.766,0.882,1.302c0.006,0.015,0.013,0.222,0.011,0.293
		c-0.016,0.482-0.196,0.999-0.477,1.406c-0.078,0.121-0.183,0.267-0.309,0.331C67.716,6.924,67.696,6.9,67.66,6.875
		c-0.043-0.038-0.038-0.088-0.014-0.133c0.256-0.302,0.447-0.604,0.586-0.969c0.184-0.426,0.132-0.966-0.019-1.377
		c-0.045-0.095-0.095-0.194-0.161-0.269c-0.27-0.392-0.948-0.47-1.268-0.362c-0.516,0.177-1.051,0.345-1.591,0.479
		c-0.15,0.037-0.199,0.068-0.264-0.019C64.901,4.193,64.909,4.127,64.925,4.089L64.925,4.089z M67.601,5.557
		c0.06-0.141,0.256-0.316,0.225-0.406c-0.018-0.028-0.045-0.046-0.085-0.046c-0.066,0.008-0.118,0.063-0.149,0.106
		c-0.036,0.041-0.096,0.032-0.112-0.026c-0.017-0.06-0.004-0.13,0.032-0.18c0.048-0.09-0.09-0.108-0.065-0.187
		c0.074-0.116,0.146-0.271,0.097-0.417C67.52,4.294,67.39,4.266,67.384,4.15c-0.002-0.032,0.037-0.073,0.095-0.067
		c0.127,0.036,0.234,0.161,0.266,0.291c0.059,0.126-0.055,0.242,0.029,0.35c0.059,0.022,0.077-0.045,0.137-0.038
		c0.038,0.005,0.064,0.018,0.084,0.058c0.079,0.173,0.057,0.345,0.027,0.54c-0.039,0.216-0.254,0.331-0.234,0.565
		c0.007,0.097-0.17,0.448-0.267,0.414c-0.093-0.1,0.026-0.233,0.036-0.353C67.445,5.8,67.549,5.669,67.601,5.557L67.601,5.557z
		 M65.067,7.261c-0.053-0.037-0.123-0.056-0.177-0.104c0.039-0.203-0.052-0.337-0.158-0.494c0.075-0.011,0.061-0.014,0.117-0.019
		c0.286-0.026,0.422-0.048,0.661-0.087c0.229-0.032,0.428-0.09,0.664-0.106c0.491-0.034,0.702,0.072,0.98,0.232
		c0.065,0.047,0.189,0.057,0.152,0.18c-0.029,0.066-0.298,0.019-0.44,0.066c-0.169,0.047-0.267,0.2-0.332,0.352
		c-0.188-0.009-0.353,0.126-0.445,0.252c-0.205,0.299-0.19,1.11-0.197,1.115c-0.104-0.041-0.123-0.193-0.239-0.22
		c-0.078-0.016-0.15,0.056-0.191,0.104c-0.031,0.025-0.08,0.057-0.114,0.044C65.38,8.505,65.387,8.418,65.4,8.35
		C65.454,7.965,65.41,7.467,65.067,7.261L65.067,7.261z M66.914,4.036c0.106-0.02,0.231,0.146,0.277,0.262
		c0.012,0.024,0.039,0.076,0.02,0.163c-0.046,0.102,0.049,0.221-0.008,0.326c-0.012,0.055-0.064,0.075-0.118,0.071
		c-0.218-0.063-0.2-0.362-0.411-0.456c-0.078-0.004-0.109,0.068-0.219,0.062c-0.093-0.003-0.188-0.028-0.234-0.117
		c-0.017-0.033,0.007-0.075,0.036-0.09c0.107-0.028,0.216-0.04,0.312-0.091c0.106-0.031,0.18,0.047,0.279,0.051
		C66.917,4.173,66.837,4.07,66.914,4.036L66.914,4.036z M64.752,6.236c0.035-0.017,0.076-0.039,0.113-0.054
		c0.231-0.176,0.161-0.518,0.096-0.757c0.08-0.122,0.1-0.276,0.039-0.415c0.051-0.14,0.067-0.295,0.048-0.456
		c0.061-0.014,0.095-0.009,0.138,0c0.222,0.028,0.468-0.003,0.666-0.031c0.135-0.048,0.193,0.125,0.253,0.162
		c0.057,0.047,0.093,0.058,0.203,0.09c0.136,0.034,0.239,0.008,0.345,0.053c0.06,0.123,0.159,0.24,0.29,0.291
		c0.059,0.03,0.146,0.004,0.186,0.066c0.001,0.158,0.063,0.285,0.131,0.412c-0.048,0.089-0.086,0.241-0.033,0.354
		c-0.015,0.104-0.059,0.302-0.059,0.302c-0.005,0.029-0.005,0.029-0.021,0.088c-0.083-0.033-0.167-0.072-0.252-0.1
		c-0.417-0.195-0.885-0.056-1.309,0.012c-0.275,0.033-0.564,0.082-0.855,0.094C64.736,6.297,64.736,6.297,64.752,6.236L64.752,6.236
		z M64.63,5.049c0,0.063,0.002,0.151-0.049,0.206c-0.041,0.093,0.043,0.151,0.066,0.246c0.017,0.041,0.072,0.272-0.001,0.375
		c-0.074,0.072-0.124-0.024-0.196-0.021c-0.09,0.057-0.061,0.173-0.078,0.265c-0.012,0.04-0.006,0.105-0.081,0.103
		c-0.048-0.019-0.058-0.047-0.079-0.132c-0.022-0.166-0.018-0.346,0.033-0.495c0.044-0.076,0.102-0.026,0.149-0.026
		c0.051-0.02,0.042-0.051,0.045-0.081c0.006-0.031-0.079-0.293-0.16-0.426c-0.11-0.108,0.037-0.257-0.02-0.393
		c-0.017-0.028-0.021-0.044,0.022-0.072c0.046-0.036,0.096,0.005,0.145,0.011c0.044,0.005,0.065-0.032,0.049-0.074
		c-0.07-0.149-0.193-0.288-0.163-0.447c0.018-0.031,0.048-0.054,0.09-0.048c0.043,0.017,0.058,0.022,0.108,0.081
		c0.062,0.106,0.188,0.373,0.185,0.513c0,0.029-0.039,0.223-0.104,0.245C64.544,4.956,64.635,4.974,64.63,5.049L64.63,5.049z
		 M64.083,2.339c0,0,0.043-0.01,0.104,0.017c0.188,0.088,0.303,0.198,0.372,0.397c0.017,0.057,0.037,0.119-0.009,0.164
		c-0.171-0.012-0.467-0.05-0.467-0.05V2.339L64.083,2.339z M63.784,3.379h0.01c0.222,0,0.447,0.014,0.67,0.031
		c0.054,0.007,0.098,0.051,0.085,0.113c-0.011,0.04-0.044,0.068-0.083,0.071c-0.228-0.017-0.445-0.005-0.672-0.005h-0.01
		c-0.227,0-0.446-0.012-0.673,0.005c-0.038-0.003-0.072-0.032-0.082-0.071c-0.013-0.062,0.03-0.106,0.084-0.113
		C63.337,3.393,63.562,3.379,63.784,3.379L63.784,3.379z M63.786,3.855C63.785,3.855,63.785,3.855,63.786,3.855h0.001
		C63.787,3.855,63.787,3.855,63.786,3.855h0.006c-0.001,0-0.001,0-0.001,0h0.002c0,0,0,0,0,0c0.229,0.005,0.173,0.543,0.173,1.207
		c0,0.664,0.069,1.201-0.173,1.206h-0.006c-0.243-0.005-0.172-0.542-0.172-1.206C63.613,4.398,63.557,3.86,63.786,3.855
		L63.786,3.855z M63.019,2.753c0.068-0.199,0.183-0.309,0.373-0.397c0.06-0.027,0.102-0.017,0.102-0.017v0.527
		c0,0-0.296,0.039-0.467,0.05C62.98,2.873,63.001,2.81,63.019,2.753L63.019,2.753z M63.067,4.123
		c0.049-0.059,0.065-0.064,0.108-0.081c0.042-0.006,0.072,0.017,0.09,0.048c0.029,0.159-0.093,0.298-0.164,0.447
		c-0.016,0.042,0.005,0.079,0.051,0.074c0.047-0.006,0.097-0.047,0.142-0.011c0.044,0.027,0.04,0.044,0.023,0.072
		c-0.057,0.136,0.091,0.285-0.02,0.393c-0.081,0.132-0.166,0.395-0.16,0.426c0.002,0.03-0.005,0.061,0.045,0.081
		c0.048,0,0.105-0.05,0.15,0.026c0.049,0.148,0.056,0.329,0.032,0.495c-0.02,0.084-0.03,0.113-0.077,0.132
		c-0.077,0.002-0.071-0.063-0.083-0.103c-0.017-0.092,0.012-0.208-0.079-0.265c-0.071-0.003-0.122,0.093-0.195,0.021
		c-0.074-0.103-0.017-0.334-0.004-0.375c0.026-0.094,0.109-0.152,0.068-0.246c-0.05-0.055-0.048-0.143-0.048-0.206
		c-0.005-0.075,0.086-0.094,0.038-0.169c-0.065-0.022-0.104-0.216-0.104-0.245C62.877,4.496,63.004,4.229,63.067,4.123L63.067,4.123
		z M62.824,6.236c0.015,0.061,0.015,0.061,0.023,0.111c-0.292-0.012-0.581-0.062-0.855-0.094c-0.423-0.068-0.893-0.207-1.31-0.012
		c-0.084,0.028-0.169,0.067-0.25,0.1c-0.017-0.059-0.017-0.059-0.022-0.088c0,0-0.045-0.198-0.059-0.302
		c0.051-0.113,0.013-0.265-0.033-0.354c0.067-0.127,0.129-0.254,0.131-0.412c0.04-0.062,0.126-0.036,0.186-0.066
		c0.132-0.051,0.231-0.168,0.291-0.291c0.104-0.044,0.207-0.019,0.344-0.053c0.111-0.032,0.146-0.043,0.202-0.09
		c0.061-0.037,0.119-0.21,0.253-0.162c0.199,0.027,0.444,0.059,0.666,0.031c0.042-0.009,0.077-0.014,0.139,0
		c-0.021,0.16-0.004,0.316,0.047,0.456c-0.061,0.139-0.041,0.293,0.039,0.415c-0.066,0.24-0.135,0.582,0.096,0.757
		C62.749,6.198,62.789,6.219,62.824,6.236L62.824,6.236z M62.686,7.157c-0.053,0.048-0.125,0.067-0.177,0.104
		c-0.341,0.206-0.385,0.704-0.332,1.089c0.014,0.068,0.02,0.156,0.051,0.227c-0.034,0.013-0.082-0.019-0.113-0.044
		c-0.041-0.048-0.113-0.12-0.191-0.104c-0.117,0.026-0.136,0.179-0.241,0.22c-0.005-0.005,0.009-0.816-0.197-1.115
		c-0.093-0.126-0.257-0.262-0.445-0.252c-0.065-0.152-0.163-0.304-0.332-0.352c-0.142-0.047-0.411,0-0.44-0.066
		c-0.037-0.123,0.087-0.133,0.152-0.18c0.278-0.161,0.488-0.267,0.979-0.232c0.238,0.016,0.437,0.074,0.665,0.106
		c0.239,0.039,0.375,0.061,0.661,0.087c0.058,0.004,0.041,0.008,0.117,0.019C62.737,6.819,62.648,6.954,62.686,7.157L62.686,7.157z
		 M60.365,4.46c-0.017-0.086,0.01-0.138,0.02-0.163c0.048-0.116,0.173-0.282,0.279-0.262c0.076,0.034-0.002,0.138,0.064,0.181
		c0.1-0.004,0.173-0.083,0.279-0.051c0.098,0.051,0.206,0.063,0.313,0.091c0.029,0.015,0.053,0.058,0.035,0.09
		c-0.043,0.089-0.141,0.114-0.234,0.117c-0.108,0.005-0.141-0.067-0.218-0.062c-0.21,0.094-0.193,0.392-0.411,0.456
		c-0.054,0.004-0.106-0.016-0.119-0.071C60.316,4.681,60.413,4.562,60.365,4.46L60.365,4.46z M59.028,4.874
		c0.068-0.536,0.324-1.129,0.883-1.302c0.027-0.012,0.07-0.023,0.103-0.036c0.464-0.129,0.955,0.005,1.384,0.184
		c0.356,0.123,0.738,0.226,1.117,0.296c0.05,0.008,0.11,0.02,0.138,0.074c0.015,0.038,0.023,0.104-0.006,0.136
		c-0.064,0.087-0.114,0.056-0.263,0.019c-0.542-0.133-1.077-0.301-1.591-0.479c-0.32-0.108-0.998-0.03-1.269,0.362
		c-0.066,0.075-0.117,0.174-0.161,0.269c-0.151,0.411-0.202,0.951-0.018,1.377c0.139,0.365,0.33,0.667,0.586,0.969
		c0.024,0.045,0.029,0.095-0.014,0.133C59.88,6.9,59.86,6.924,59.803,6.904c-0.125-0.064-0.229-0.21-0.308-0.331
		c-0.281-0.407-0.462-0.924-0.477-1.406C59.017,5.096,59.022,4.889,59.028,4.874L59.028,4.874z M60.133,4.818
		c0.022,0.079-0.114,0.097-0.065,0.187c0.035,0.05,0.046,0.121,0.031,0.18c-0.016,0.059-0.077,0.067-0.111,0.026
		c-0.032-0.043-0.085-0.098-0.151-0.106c-0.041,0-0.068,0.018-0.085,0.046c-0.03,0.09,0.166,0.265,0.224,0.406
		c0.051,0.112,0.157,0.243,0.044,0.354c0.01,0.12,0.128,0.252,0.036,0.353c-0.098,0.034-0.273-0.317-0.266-0.414
		c0.02-0.235-0.194-0.35-0.233-0.565c-0.031-0.195-0.054-0.367,0.026-0.54c0.018-0.04,0.046-0.053,0.085-0.058
		c0.059-0.008,0.078,0.06,0.135,0.038c0.084-0.107-0.03-0.224,0.029-0.35c0.032-0.13,0.14-0.255,0.267-0.291
		c0.057-0.005,0.097,0.036,0.094,0.067c-0.005,0.116-0.135,0.144-0.157,0.251C59.987,4.548,60.058,4.703,60.133,4.818L60.133,4.818z
		 M59.265,7.687c0.017,0.048,0.021,0.1,0.049,0.146c-0.122,0.103-0.192,0.294-0.153,0.482c0.018,0.17,0.09,0.321,0.151,0.474
		c-0.046,0.008-0.079,0.016-0.123,0.008c0.033-0.302-0.231-0.996-0.605-1.106c-0.087-0.015-0.184,0.024-0.264,0.06
		c-0.042-0.064-0.068-0.103-0.095-0.139c0-0.014,0.014-0.013,0.015-0.021c0.23-0.258,0.491-0.431,0.921-0.504
		c0,0,0.229-0.056,0.336-0.016c0.09,0.06-0.041,0.138-0.107,0.198C59.28,7.388,59.241,7.512,59.265,7.687L59.265,7.687z
		 M58.815,5.983c-0.018,0.095-0.052,0.219,0.005,0.298c0.036,0.085,0.234,0.087,0.148,0.215c-0.048,0.15,0.219,0.264,0.098,0.312
		c-0.092,0.019-0.17,0.016-0.312,0.059c-0.219,0.074-0.38,0.194-0.563,0.307c-0.059,0.034-0.107,0.095-0.137,0.153
		c-0.088-0.047-0.225-0.073-0.329-0.063c-0.003-0.081,0.017-0.107,0.002-0.175c-0.008-0.159-0.064-0.301-0.123-0.45
		c0.046-0.16,0.068-0.31,0.011-0.473c-0.044-0.12,0.043-0.27-0.011-0.366c-0.016-0.029,0-0.042,0-0.042
		c0.059-0.044,0.137-0.098,0.208-0.145c0.191,0.036,0.326-0.071,0.445-0.199c0.123,0.041,0.247-0.063,0.34-0.008
		c0.045,0.029,0.102,0.096,0.055,0.15c-0.042,0.088-0.031,0.235,0.03,0.311C58.72,5.917,58.778,5.948,58.815,5.983L58.815,5.983z
		 M57.121,7.542c-0.087,0.033-0.159-0.043-0.192-0.099c-0.163-0.238-0.307-0.481-0.397-0.747C56.333,6.171,56.244,5.526,56.493,5
		c0.078-0.202,0.24-0.356,0.404-0.477c0.452-0.303,1.039-0.446,1.619-0.312c0.057,0.023,0.17,0.026,0.178,0.126
		c-0.002,0.042-0.006,0.046-0.025,0.085c-0.028,0.06-0.123,0.054-0.259,0.015c-0.365-0.071-0.738-0.024-1.081,0.111
		c-0.279,0.125-0.594,0.324-0.679,0.633c-0.237,0.778,0.077,1.607,0.529,2.215C57.194,7.443,57.207,7.501,57.121,7.542L57.121,7.542
		z M57.384,6.98c-0.007,0.043-0.051,0.029-0.076,0.017c-0.158-0.122-0.223-0.287-0.296-0.462c-0.044-0.126-0.132-0.223-0.064-0.358
		c0.044-0.098,0.044-0.085,0.081-0.167c0.008-0.032,0.028-0.067,0.001-0.107c-0.142-0.2-0.164-0.629,0.007-0.75
		c0.045-0.033,0.114-0.036,0.09,0.026c-0.064,0.146-0.073,0.326,0.024,0.465c0.107,0.072,0.167,0.204,0.151,0.331
		c-0.003,0.044-0.013,0.082-0.033,0.119c0.031,0.11,0.103,0.25,0.029,0.361c-0.024,0.036-0.07,0.03-0.092,0.05
		C57.289,6.646,57.403,6.811,57.384,6.98L57.384,6.98z M57.341,5.16c-0.001-0.036,0.001-0.058,0.021-0.099
		c0.044-0.123,0.213-0.3,0.282-0.267c0.09,0.041-0.111,0.226,0.054,0.28c0.2,0.008,0.188-0.211,0.334-0.298
		c0.102-0.067,0.231-0.064,0.346-0.042c0.102,0.025,0.125,0.107,0.137,0.179c0.011,0.043,0,0.103-0.033,0.136
		c-0.133,0.078-0.266-0.154-0.39,0.012c-0.074,0.088-0.09,0.237-0.216,0.259c-0.069,0.007-0.107-0.057-0.187-0.036
		c-0.059,0.052-0.144,0.11-0.234,0.084C57.378,5.339,57.348,5.29,57.341,5.16L57.341,5.16z M58.956,11.08
		c-0.003,0.036,0.008,0.092-0.013,0.094c-0.053,0.001-0.074-0.083-0.092-0.154c-0.004-0.088,0.054-0.163,0.117-0.194
		c0.025-0.016,0.063-0.013,0.086,0.005c0.041,0.029,0.046,0.132,0.012,0.152C59.06,10.997,58.971,11.022,58.956,11.08L58.956,11.08z
		 M59.146,10.701c-0.047-0.046-0.098-0.166-0.012-0.167c0.128-0.007,0.229,0.169,0.272,0.274c0.08,0.229,0.049,0.502-0.129,0.673
		c-0.026,0.024-0.054,0.028-0.077,0.024c-0.056-0.035,0.004-0.08,0.021-0.107c0.014-0.018,0.024-0.028,0.031-0.044
		C59.369,11.143,59.286,10.868,59.146,10.701L59.146,10.701z M63.793,12.594h-0.01c-0.223-0.003-2.949-0.042-3.271-0.132
		c0.471-0.103,2.526-0.127,3.271-0.13h0.01c0.745,0.003,2.799,0.027,3.271,0.13C66.741,12.552,64.017,12.591,63.793,12.594
		L63.793,12.594z M68.304,12.331c-1.507-0.152-2.959-0.234-4.51-0.239h-0.01c-1.551,0.004-3.003,0.086-4.511,0.239
		c-0.112,0.008-0.188-0.019-0.193-0.071c-0.007-0.066,0.016-0.102,0.064-0.113c0.414-0.076,0.872-0.122,1.292-0.152
		c1.099-0.109,2.224-0.176,3.349-0.176h0.01c1.125,0,2.25,0.067,3.349,0.176c0.419,0.03,0.876,0.076,1.29,0.152
		c0.05,0.012,0.071,0.047,0.065,0.113C68.492,12.312,68.416,12.339,68.304,12.331L68.304,12.331z M60.176,10.717l-0.172,0.021
		c-0.106,0.013-0.203-0.061-0.216-0.167c-0.013-0.106,0.062-0.203,0.168-0.216l0.172-0.021c0.106-0.014,0.202,0.062,0.216,0.167
		C60.357,10.608,60.282,10.704,60.176,10.717L60.176,10.717z M60.438,11.44c0.014,0.106-0.061,0.203-0.167,0.216l-0.172,0.022
		c-0.106,0.012-0.203-0.062-0.216-0.168c-0.013-0.106,0.061-0.202,0.166-0.216l0.174-0.021C60.328,11.26,60.425,11.335,60.438,11.44
		L60.438,11.44z M60.851,10.819l0.249-0.296c0.043-0.052,0.121-0.058,0.172-0.015l0.295,0.25c0.053,0.043,0.059,0.121,0.016,0.173
		l-0.25,0.295c-0.044,0.052-0.121,0.059-0.173,0.014l-0.296-0.249C60.813,10.948,60.807,10.87,60.851,10.819L60.851,10.819z
		 M62.398,10.554h-0.175c-0.107,0-0.192-0.087-0.192-0.194c0-0.106,0.085-0.192,0.192-0.192h0.175c0.106,0,0.193,0.085,0.193,0.192
		C62.591,10.467,62.505,10.554,62.398,10.554L62.398,10.554z M62.612,11.286c0,0.107-0.086,0.193-0.193,0.193h-0.173
		c-0.107,0-0.194-0.086-0.194-0.193c0-0.106,0.087-0.193,0.194-0.193h0.173C62.526,11.093,62.612,11.18,62.612,11.286L62.612,11.286
		z M63.052,11.128v-0.964c0-0.085,0.068-0.154,0.152-0.154h1.26c0.085,0,0.152,0.069,0.152,0.154v0.964
		c0,0.084-0.067,0.153-0.152,0.153h-1.26C63.121,11.281,63.052,11.212,63.052,11.128L63.052,11.128z M65.158,11.093h0.174
		c0.105,0,0.192,0.087,0.192,0.193c0,0.107-0.087,0.193-0.192,0.193h-0.174c-0.105,0-0.193-0.086-0.193-0.193
		C64.965,11.18,65.053,11.093,65.158,11.093L65.158,11.093z M64.985,10.359c0-0.106,0.087-0.192,0.193-0.192h0.174
		c0.106,0,0.194,0.085,0.194,0.192c0,0.107-0.088,0.194-0.194,0.194h-0.174C65.072,10.554,64.985,10.467,64.985,10.359
		L64.985,10.359z M66.009,10.758l0.295-0.25c0.053-0.043,0.131-0.038,0.174,0.015l0.249,0.296c0.046,0.051,0.037,0.129-0.014,0.173
		l-0.297,0.249c-0.052,0.044-0.128,0.038-0.173-0.014l-0.25-0.295C65.95,10.879,65.958,10.801,66.009,10.758L66.009,10.758z
		 M67.354,11.273l0.174,0.021c0.104,0.014,0.181,0.11,0.167,0.216c-0.014,0.107-0.108,0.181-0.214,0.168l-0.175-0.022
		c-0.104-0.013-0.182-0.109-0.167-0.216C67.15,11.335,67.248,11.26,67.354,11.273L67.354,11.273z M67.233,10.501
		c0.014-0.106,0.109-0.182,0.216-0.167l0.173,0.021c0.104,0.013,0.181,0.11,0.167,0.216c-0.014,0.106-0.11,0.181-0.216,0.167
		L67.4,10.717C67.295,10.704,67.221,10.608,67.233,10.501L67.233,10.501z M68.323,11.354c0.009,0.017,0.019,0.026,0.031,0.044
		c0.018,0.027,0.078,0.073,0.021,0.107c-0.021,0.004-0.051,0-0.077-0.024c-0.176-0.171-0.208-0.443-0.13-0.673
		c0.045-0.104,0.146-0.281,0.275-0.274c0.086,0.001,0.034,0.121-0.013,0.167C68.292,10.868,68.207,11.143,68.323,11.354
		L68.323,11.354z M68.635,11.173c-0.022-0.002-0.011-0.058-0.014-0.094c-0.016-0.057-0.104-0.083-0.11-0.097
		c-0.032-0.02-0.028-0.123,0.012-0.152c0.022-0.018,0.062-0.021,0.087-0.005c0.062,0.031,0.12,0.105,0.115,0.194
		C68.709,11.091,68.687,11.175,68.635,11.173L68.635,11.173z M68.793,10.255c-0.037,0.007-0.121,0-0.174-0.012
		c-0.257-0.059-2.112-0.428-4.826-0.428h-0.01c-2.713,0-4.568,0.369-4.826,0.428c-0.053,0.012-0.138,0.019-0.174,0.012
		c-0.032-0.016-0.072-0.071-0.047-0.12c0.013-0.039,0.054-0.063,0.09-0.076c0.972-0.212,3.005-0.513,4.958-0.515h0.01
		c1.952,0.002,3.985,0.303,4.958,0.515c0.036,0.013,0.075,0.037,0.09,0.076C68.865,10.184,68.826,10.24,68.793,10.255L68.793,10.255
		z M70.046,8.071c-0.158,0.175-0.272,0.352-0.368,0.549l-0.01,0.011c-0.143-0.076-0.182-0.054-0.262,0.08
		c-0.076,0.125-0.083,0.171,0.033,0.258l-0.009,0.027c-0.169,0.275-0.322,0.486-0.585,0.714c-0.205,0.175-0.588-0.006-0.622-0.291
		c-0.534,0.388-1.169,0.077-1.295-0.357c-0.294,0.334-0.708,0.588-1.385,0.059c-0.451,0.239-1.217,0.442-1.751-0.269h-0.007
		c-0.535,0.711-1.302,0.508-1.753,0.269c-0.676,0.529-1.09,0.275-1.384-0.059c-0.125,0.434-0.76,0.745-1.293,0.357
		c-0.036,0.285-0.418,0.466-0.624,0.291c-0.261-0.228-0.414-0.439-0.584-0.714l-0.007-0.027c0.115-0.086,0.109-0.133,0.033-0.258
		c-0.082-0.134-0.121-0.156-0.261-0.08L57.898,8.62c-0.095-0.197-0.208-0.374-0.368-0.549c-0.06-0.067-0.176-0.117-0.094-0.185
		c0.049-0.044,0.109-0.073,0.176-0.1c0.117-0.049,0.254-0.092,0.36-0.004c0.14,0.185,0.017,0.461,0.084,0.517
		c0.021,0.021,0.052,0.028,0.082,0.009c0.117-0.105,0.234-0.382,0.413-0.303c0.161,0.11,0.289,0.409,0.323,0.662
		c0.013,0.134,0.046,0.296-0.063,0.389c-0.072,0.062-0.2-0.016-0.265,0.059c-0.038,0.102,0.034,0.151,0.09,0.238
		c0.08,0.092,0.178,0.22,0.327,0.229c0.207-0.028,0.232-0.245,0.318-0.386c0.023-0.036,0.023-0.015,0.057,0.003
		c0.191,0.141,0.445,0.236,0.681,0.204c0.121-0.027,0.256-0.089,0.295-0.22c0.03-0.083,0.015-0.163-0.004-0.239
		c-0.129-0.239-0.246,0.143-0.421,0.026c-0.185-0.141-0.337-0.352-0.408-0.59c-0.026-0.086-0.062-0.213,0.021-0.291
		c0.097-0.084,0.209-0.007,0.321-0.013c0.087,0.006,0.056-0.071,0.054-0.094c-0.08-0.127-0.294-0.167-0.306-0.346
		c0.012-0.158,0.147-0.219,0.289-0.294c0.224-0.102,0.484-0.176,0.737-0.128c0.06,0.014,0.121,0.04,0.144,0.117
		c0.012,0.069-0.02,0.097-0.032,0.138c-0.034,0.086-0.121,0.18-0.034,0.28c0.034,0.049,0.078,0.046,0.133,0.014
		c0.081-0.082,0.176-0.187,0.288-0.167c0.146,0.016,0.227,0.23,0.261,0.393c0.052,0.241,0.075,0.513-0.066,0.71
		c-0.149,0.128-0.254-0.127-0.395-0.021c-0.041,0.042-0.002,0.167,0.029,0.234c0.081,0.145,0.17,0.256,0.334,0.288
		c0.245,0.036,0.392-0.021,0.596-0.229c0.079-0.091,0.058-0.054,0.155-0.167C62.097,8.886,62.224,9,62.343,9.05
		c0.275,0.135,0.676,0.151,0.883-0.033c0.137-0.117,0.214-0.333,0.167-0.387c-0.208-0.211-0.23,0.122-0.373,0.175
		c-0.187,0.064-0.271,0.018-0.36-0.073c-0.218-0.296-0.238-0.725-0.109-1.083c0.019-0.038,0.019-0.038,0.043-0.074
		c0.069-0.097,0.153-0.125,0.249-0.11c0.134,0.024,0.224,0.131,0.282,0.243c0.025,0.047,0.087,0.045,0.137,0.028
		c0.05-0.017,0.096-0.076,0.068-0.126c-0.082-0.111-0.212-0.194-0.283-0.31c-0.048-0.08-0.069-0.203-0.026-0.294
		c0.031-0.081,0.104-0.148,0.18-0.203c0.163-0.103,0.373-0.157,0.584-0.157h0.01c0.211,0,0.422,0.054,0.584,0.157
		c0.075,0.055,0.15,0.123,0.179,0.203c0.044,0.092,0.022,0.214-0.026,0.294c-0.07,0.116-0.2,0.199-0.282,0.31
		c-0.027,0.051,0.02,0.11,0.068,0.126c0.051,0.018,0.112,0.019,0.138-0.028c0.058-0.112,0.146-0.218,0.28-0.243
		c0.097-0.015,0.181,0.013,0.251,0.11c0.024,0.036,0.024,0.036,0.043,0.074c0.127,0.358,0.107,0.786-0.11,1.083
		c-0.089,0.091-0.174,0.138-0.359,0.073c-0.144-0.054-0.166-0.387-0.372-0.175c-0.049,0.053,0.027,0.27,0.164,0.387
		c0.208,0.184,0.608,0.167,0.883,0.033C65.353,9,65.479,8.886,65.566,8.801c0.096,0.114,0.074,0.076,0.155,0.167
		c0.202,0.208,0.35,0.265,0.594,0.229c0.165-0.031,0.254-0.143,0.337-0.288c0.03-0.067,0.069-0.192,0.026-0.234
		c-0.138-0.107-0.244,0.148-0.395,0.021c-0.14-0.198-0.117-0.47-0.065-0.71c0.034-0.163,0.116-0.376,0.262-0.393
		c0.111-0.02,0.208,0.085,0.288,0.167c0.056,0.032,0.099,0.036,0.133-0.014c0.087-0.1,0-0.193-0.034-0.28
		c-0.013-0.041-0.043-0.069-0.032-0.138c0.024-0.077,0.085-0.103,0.145-0.117c0.251-0.048,0.512,0.026,0.736,0.128
		c0.143,0.075,0.276,0.136,0.288,0.294C67.992,7.813,67.778,7.854,67.7,7.98c-0.004,0.023-0.034,0.101,0.053,0.094
		c0.112,0.006,0.225-0.071,0.32,0.013c0.083,0.078,0.05,0.205,0.021,0.291c-0.071,0.238-0.224,0.449-0.407,0.59
		c-0.175,0.117-0.293-0.265-0.423-0.026c-0.018,0.076-0.034,0.155-0.002,0.239c0.038,0.131,0.173,0.193,0.294,0.22
		c0.236,0.032,0.489-0.063,0.681-0.204c0.034-0.018,0.034-0.04,0.058-0.003c0.086,0.141,0.11,0.358,0.317,0.386
		c0.149-0.009,0.248-0.137,0.328-0.229c0.055-0.087,0.127-0.136,0.089-0.238c-0.065-0.074-0.192,0.003-0.266-0.059
		c-0.109-0.093-0.075-0.255-0.062-0.389c0.034-0.253,0.163-0.552,0.323-0.662c0.179-0.079,0.296,0.198,0.412,0.303
		c0.03,0.02,0.062,0.012,0.083-0.009c0.067-0.055-0.057-0.332,0.083-0.517c0.106-0.088,0.243-0.045,0.359,0.004
		c0.068,0.027,0.129,0.056,0.178,0.1C70.224,7.955,70.105,8.004,70.046,8.071L70.046,8.071z M70.123,5.368
		c-0.092,0.026-0.176-0.032-0.233-0.084c-0.081-0.021-0.119,0.043-0.188,0.036c-0.125-0.021-0.142-0.17-0.215-0.259
		c-0.125-0.166-0.258,0.066-0.392-0.012c-0.031-0.033-0.044-0.093-0.031-0.136c0.011-0.072,0.035-0.153,0.136-0.179
		c0.116-0.022,0.244-0.026,0.346,0.042c0.146,0.086,0.133,0.306,0.334,0.298c0.166-0.054-0.036-0.239,0.055-0.28
		c0.068-0.033,0.236,0.144,0.282,0.267c0.019,0.041,0.021,0.062,0.02,0.099C70.229,5.29,70.198,5.339,70.123,5.368L70.123,5.368z
		 M70.27,6.997C70.244,7.009,70.2,7.023,70.193,6.98c-0.021-0.169,0.096-0.333,0.179-0.473c-0.024-0.02-0.068-0.015-0.094-0.05
		c-0.074-0.11-0.002-0.25,0.03-0.361c-0.02-0.037-0.03-0.075-0.034-0.119c-0.015-0.127,0.046-0.259,0.151-0.331
		c0.097-0.14,0.089-0.319,0.023-0.465c-0.021-0.062,0.046-0.059,0.091-0.026c0.171,0.121,0.148,0.55,0.006,0.75
		c-0.026,0.04-0.006,0.075,0.003,0.107c0.036,0.082,0.036,0.069,0.08,0.167c0.068,0.135-0.019,0.231-0.063,0.358
		C70.491,6.71,70.426,6.875,70.27,6.997L70.27,6.997z M71.046,6.697c-0.091,0.265-0.236,0.508-0.397,0.747
		c-0.034,0.056-0.105,0.132-0.193,0.099c-0.086-0.042-0.071-0.099-0.057-0.144c0.453-0.608,0.768-1.437,0.53-2.215
		c-0.085-0.309-0.399-0.507-0.68-0.633c-0.343-0.135-0.717-0.182-1.081-0.111c-0.137,0.039-0.23,0.045-0.259-0.015
		c-0.02-0.039-0.023-0.044-0.026-0.085c0.008-0.1,0.122-0.103,0.178-0.126c0.579-0.135,1.167,0.008,1.62,0.312
		C70.844,4.645,71.005,4.799,71.084,5C71.333,5.526,71.243,6.171,71.046,6.697L71.046,6.697z"/>
	<path fill-rule="evenodd" clip-rule="evenodd" d="M64.071,10.161c0.147,0,0.203,0.062,0.156,0.109
		c-0.11,0.069-0.309,0.215-0.309,0.215s-0.06,0-0.098,0c-0.217,0-0.292,0-0.292,0.084c-0.004,0.063,0,0.012,0,0.107
		c-0.087,0.061-0.318,0.242-0.318,0.242v-0.616c0,0,0.041-0.142,0.169-0.142C63.496,10.161,63.97,10.161,64.071,10.161
		L64.071,10.161z"/>
	<polygon fill-rule="evenodd" clip-rule="evenodd" points="64.26,10.919 63.712,10.919 64.26,10.539 64.26,10.919 	"/>
	<path fill-rule="evenodd" clip-rule="evenodd" d="M63.798,8.317c-0.253-0.008-0.286-0.057-0.286-0.272
		c0-0.222,0.033-0.266,0.286-0.272h0.012c0.253,0.008,0.286,0.056,0.286,0.272c0,0.222-0.032,0.266-0.286,0.273L63.798,8.317
		L63.798,8.317z"/>
	<path fill-rule="evenodd" clip-rule="evenodd" d="M67.133,8.437c-0.181-0.06-0.195-0.102-0.148-0.257
		c0.047-0.161,0.08-0.185,0.264-0.136l0.009,0.002c0.181,0.06,0.195,0.102,0.149,0.258c-0.049,0.161-0.08,0.186-0.266,0.136
		L67.133,8.437L67.133,8.437z"/>
	<path fill-rule="evenodd" clip-rule="evenodd" d="M60.51,8.437c0.181-0.06,0.195-0.102,0.147-0.257
		c-0.045-0.161-0.08-0.185-0.263-0.136l-0.01,0.002c-0.181,0.06-0.195,0.102-0.149,0.258c0.048,0.161,0.081,0.186,0.265,0.136
		L60.51,8.437L60.51,8.437z"/>
</g>
</svg>
