<svg xmlns="http://www.w3.org/2000/svg" xmlns:xlink="http://www.w3.org/1999/xlink" viewBox="0 0 534.72 484.32"><defs><clipPath id="b"><path fill-rule="evenodd" clip-rule="evenodd" fill="none" d="M145.686 384.65c-7.563-2.04-16.748-3.778-28.033-7.856-11.285-4.078-15.607-6.716-18.188-8.516-2.582-1.8-4.682-2.46-6.603-3.718s-4.082-3.238-6.603-4.738c-2.522-1.5-4.923-2.938-6.844-4.857s-4.142-2.878-5.583-4.078c-1.44-1.2-2.04-2.338-3.12-4.138-1.082-1.8-5.644-3.18-7.024-6.778-1.38-3.598-3.302-3.898-5.463-6.597s-2.58-5.457-5.162-7.256c-2.582-1.8-4.502-4.44-4.742-6.718-.24-2.28-2.52-4.138-3.902-6.057-1.38-1.92-.36-3.3-1.8-5.218-1.44-1.92-3.662-4.978-4.382-8.456-.72-3.478-.78-4.737-2.22-6.116-1.442-1.38-1.982-3.958-2.102-6.656-.12-2.7-2.76-4.918-2.88-8.576-.12-3.658.48-4.618-1.142-6.477-1.62-1.86-1.86-5.158-1.5-7.316.36-2.16 0-3.66-1.14-5.758-1.14-2.1-.84-4.558-.42-6.057.42-1.5.18-2.938-.84-5.217s-.18-4.198.42-6.297c.6-2.098.84-4.017.12-5.276-.72-1.26-.42-4.138.42-6.177s1.38-2.938.12-5.158c-1.26-2.22-.54-3.84.3-6.298.84-2.458 1.32-3.778 1.08-5.877-.24-2.1 0-4.258 1.08-6.477 1.08-2.22 1.2-2.64 1.38-4.978.18-2.34.72-5.397 2.102-7.976 1.38-2.58.727-5.607 3.06-9.715 2.522-4.44 1.742-7.078 3.663-9.716s2.28-2.818 2.94-5.997c.66-3.178 1.56-5.097 3.42-6.477s2.042-4.858 3.123-7.017 3.96-2.76 5.462-6.357c1.5-3.598 1.8-4.558 4.202-5.997 2.4-1.44 3.962-6.538 6.663-8.157s3-2.28 4.802-5.038 3.902-3.538 5.522-4.498 2.34-2.04 3.842-3.718 2.94-3.12 4.502-3.6c1.56-.48 2.7-.84 4.682-3.297 1.98-2.46 2.7-2.76 4.802-3 2.1-.24 3.06-1.26 5.162-3.478s3.48-2.58 4.862-2.458c1.38.12 3.18-.78 5.583-2.58 2.4-1.798 2.7-2.218 4.74-2.218s2.942-.12 5.883-1.74 3.722-2.878 7.143-2.64c3.422.24 3.902-.958 5.703-2.218 1.8-1.26 3.12-1.68 5.882-1.08 1.173.255 3.062-.9 5.103-1.8 2.04-.898 3.662-.418 5.582-.12 1.92.3 3.542.3 5.703-.72 2.16-1.02 3.062-1.258 5.283-.78 2.22.48 3.842 1.02 6.183 0 2.34-1.018 3.302-.66 7.023 0 3.72.66 6.182-.06 9.664-2.038s5.943-3.358 7.443-5.757 3.42-4.198 5.943-5.697c2.52-1.5 3.96-3.418 6.663-5.277 2.7-1.86 4.862-4.078 6.843-5.937s3.902-5.038 9.844-6.597c6.363-5.698 7.083-5.518 9.004-5.698 1.92-.18 3.722-1.26 5.642-3 1.92-1.738 2.88-2.338 6.603-2.998s3.36-.78 5.822-2.64c2.46-1.858 4.802-3.117 7.443-2.877s3.42-.54 5.342-1.68c1.92-1.14 3.062-1.798 5.823-1.558 2.76.24 3.42.12 5.462-1.14s4.502-1.86 7.744-1.74c3.24.12 3.42.84 6.123-.78s3.42-1.2 5.762-1.02c2.34.18 3.42.84 6.903-.48 3.482-1.318 4.202-.78 7.144-.3s4.02.3 6.422-.6c2.4-.898 5.282.36 7.624.9 2.34.54 3.12.66 5.222.24 2.1-.42 5.522.42 7.383 1.26 1.862.84 4.323.12 6.064.42 1.74.3 7.623 1.56 9.904 2.338 2.28.78 4.622.42 6.303.84s3.603 1.92 6.184 2.64 5.462.898 9.905 3.057c4.44 2.16 5.16 2.7 6.962 2.82 1.8.12 5.042 2.338 6.903 3.537 1.86 1.2 5.883 2.34 9.785 4.798s9.064 5.277 11.585 7.136c2.52 1.86 2.82 2.04 5.643 3.778 2.82 1.74 9.424 6.717 18.788 16.972s17.348 20.09 24.19 30.885c6.844 10.795 9.945 17.152 14.348 29.626 4.402 12.474 5.122 17.91 7.843 21.27s11.445 12.474 18.568 24.228c7.123 11.754 10.004 24.548 11.765 38.54s-.8 27.827-7.603 41.74-14.006 22.39-17.128 26.387c-3.123 4-2.882 3.92-3.123 9.356-.24 5.438-.88 17.99-5.122 32.464-4.242 14.473-11.605 28.146-20.81 38.78s-9.764 10.876-12.726 13.435-4.963 3.358-6.484 5.038-3.28 2.878-5.282 3.998c-2 1.12-5.282 3.6-8.884 4.56-12.085 5.916-17.047 7.355-19.45 8.315-2.4.96-3.6.72-5.2 1.36s-6.003 1.04-8.485 1.438c-2.48.4-6.243 1.36-8.324 1.2-2.08-.16-4.96.88-8.243-.32-5.042.96-5.522.72-8.484.72s-6.963 2.078-9.044 3.917c-2.082 1.84-4.963 4.478-8.565 7.196s-8.164 5.118-11.765 7.437-8.484 5.437-13.606 7.436c-5.123 1.998-7.443 2.718-12.085 4.717s-6.804 2-10.166 3.198c-3.362 1.2-5.442.56-9.685 1.52s-5.684 1.52-8.485 1.52-5.122.8-6.963.72-2.88-.8-2.88-.8-8.885 1.04-20.81-.64-25.052-4.48-44.66-15.033c-19.61-10.555-29.694-23.35-38.98-35.023-9.283-11.672-9.583-14.75-17.426-16.03z"/></clipPath><filter id="a"><feOffset in="SourceAlpha" dx="10" dy="10" result="offset"/><feGaussianBlur in="offset" stdDeviation="20" result="blur"/><feMerge><feMergeNode in="blur"/><feMergeNode in="SourceGraphic"/></feMerge></filter></defs><image clip-path="url(#b)" height="100%" width="100%" xlink:href="./gx_explore_product.jpg" filter="url(#a)"/></svg>