<svg xmlns="http://www.w3.org/2000/svg" xmlns:xlink="http://www.w3.org/1999/xlink" viewBox="0 0 196.08 195.6"><defs><clipPath id="b"><path fill-rule="evenodd" clip-rule="evenodd" fill="none" d="M150.948 169.495c-14.917 11.23-33.808 17.538-53.9 17.538-13.455 0-26.065-3.006-37.395-8.33-10.37-4.873-19.674-11.65-27.402-19.984C17.3 142.89 8.275 121.43 7.79 97.55 8.187 61.76 29.393 30.5 60.05 16.27 71.3 11.05 83.817 8.112 97.048 8.112c19.86 0 38.125 6.535 52.952 17.522 14.657 10.862 25.957 26.076 31.805 43.783-.08-.238.3.7.238 1.874.132.647.68 1.242.596 2.12-.084.877.248 1.357.462 1.77.215.415.38.83.38 1.49s.2 1.458.415 1.79c.215.33.28.827.28 1.207 0 .38.067 1.208.3 1.738s.496 1.026.363 1.572c-.132.546.215 1.605.397 2.053.182.447.017 1.24.017 1.54s.25.992.348 1.356c.1.364.182.828.1 1.16-.083.33-.017 1.224.166 1.82.182.596.182.71.132 1.54-.05.827.066 1.49.182 1.87.116.38.166.298.016 1.192-.15.894-.083 1.026 0 1.49.083.463.298 1.19.066 1.67s-.166 1.11-.05 1.673c.116.564.2.96.05 1.358-.15.397-.298 1.042-.15 1.77.15.73.1 1.226-.115 1.706-.216.48-.3.728-.183 1.572s.083 1.142-.1 1.556c-.182.414-.28.844-.23 1.54.048.695.016 1.208-.216 1.688-.23.48-.297 1.01-.28 1.738s-.033.844-.33 1.44c-.3.596-.315.96-.332 1.722-.017.76-.017.76-.298 1.374-.282.613-.364 1.274-.364 2.003 0 .728-.314.844-.596 1.622-.24.665-.2 1.14-.2 1.522 0 .38-.363 1.06-.545 1.374s-.265.828-.348 1.573c-.083.744-.265.76-.596 1.39s-.38 1.124-.446 1.57c-.066.448-.083.763-.397 1.11s-.53.612-.68 1.34c-.148.73-.247 1.324-.496 1.672-.247.348-.446.397-.677 1.126-.232.728-.25 1.258-.662 1.754-.413.497-.71.894-.827 1.44-.116.546-.282.96-.596 1.308s-.562.562-.81 1.16c-.25.595-.38 1.257-.597 1.604s-.662.546-1.043 1.324c-.38.778-.397 1.142-.76 1.572-.365.43-.63.58-.912 1.192-.28.612-.348.993-.71 1.357-.365.363-.73.545-1.044 1.207s-.43 1.242-.893 1.59c-.464.346-.73.61-1.11 1.323-.38.71-.363.81-.76 1.158s-.695.48-1.076 1.192c-.38.712-.612 1.06-.976 1.34-.364.282-.63.365-.944.878-.314.513-.596 1.142-1.175 1.622-.58.48-.63.298-1.225 1.208-.596.91-.828 1.142-1.407 1.457-.58.314-.894 1.142-1.308 1.556-.414.415-.877.514-1.324.944s-.86 1.175-1.29 1.506c-.43.33-.993.612-1.242.91-.248.298-.63.943-1.16 1.258-.528.314-.595.265-1.108.844 0 0-.877 1.043-1.308 1.473-.43.433-1.464 1.21-1.464 1.21z"/></clipPath><filter id="a"><feGaussianBlur in="SourceAlpha" stdDeviation="5" result="blur"/><feMerge><feMergeNode in="blur"/><feMergeNode in="SourceGraphic"/></feMerge></filter></defs><image clip-path="url(#b)" transform="rotate(-119 98 97)" height="100%" width="100%" xlink:href="./gx_facts_product01.jpg" filter="url(#a)"/></svg>