<svg xmlns="http://www.w3.org/2000/svg" xmlns:xlink="http://www.w3.org/1999/xlink" viewBox="-20 -40 553 813"><defs><clipPath id="a"><path fill-rule="evenodd" clip-rule="evenodd" fill="none" d="M179.59 13.235c3.803-.152 8.973-.457 11.558-1.902 2.585-1.445 3.878-2.054 6.615-2.054s4.334-.533 6.387-2.13c2.053-1.598 5.703-1.37 8.44-1.522 2.737-.152 4.105-.837 5.322-1.673 1.216-.836 2.433-.836 5.322-.685 2.89.152 3.65.228 5.55-.99 1.9-1.216 5.246-1.216 7.3-.303 2.052.913 3.876.913 6.082-.228 2.205-1.142 3.498-1.294 6.235-.305 2.738.99 4.335.76 6.236-.152 1.9-.913 3.726-1.14 5.55.38 1.825 1.52 2.585 1.978 5.322 1.14 2.737-.836 5.17-.456 7.3.837 2.128 1.293 3.8 1.673 6.69 1.065s3.042.076 6.006 1.9c2.965 1.827 4.106 1.37 6.54.99s4.333 1.293 6.31 2.434c1.977 1.14 2.357 1.672 4.79 1.368s4.03.076 6.312 2.13c2.28 2.054 2.813 2.662 5.17 2.586 2.357-.076 5.17 1.52 7.07 3.042 1.902 1.52 3.043 2.358 4.943 2.586s3.648 1.065 6.005 3.423c2.357 2.358 3.65 2.51 6.007 3.042s3.27 2.358 4.714 3.803c1.445 1.445 2.053 2.586 4.942 3.423 2.89.837 2.89 1.673 4.182 3.65 1.293 1.98 3.194 3.956 5.627 4.87 2.433.912 3.04 1.673 4.105 3.802s2.51 3.727 4.714 4.792c2.205 1.065 3.573 2.282 4.638 4.868s1.9 2.966 4.41 4.564c2.51 1.596 2.433 1.748 3.573 5.17 1.14 3.424 2.357 3.728 4.486 5.325 2.13 1.597 2.357 2.358 2.965 4.792.608 2.434 1.52 3.803 3.04 5.476 1.522 1.674 2.586 2.814 3.5 5.477s1.976 4.487 3.192 5.78c1.217 1.294 1.292 1.98 1.977 5.097.684 3.12 1.825 5.705 3.193 7.226s1.52 2.814 2.28 6.085c.762 3.27.837 3.65 1.978 5.78s1.444 3.88 1.597 5.782c.152 1.902.152 3.575 1.37 5.096s1.14 2.89 1.29 6.237c.153 3.347.837 6.01 2.814 8.67 1.976 2.663 2.812 3.804 2.888 7.074s3.193 5.552 4.714 7.226c1.52 1.673 1.52 3.575 2.053 5.78.532 2.207 1.9 3.804 3.573 5.477s1.9 2.738 2.13 5.02 1.368 5.4 2.888 6.92c1.52 1.522 1.825 2.435 2.053 5.934.227 3.5 1.14 5.4 2.508 7.073 1.37 1.673 1.597 2.358 1.597 5.553 0 3.194 1.217 5.933 2.28 7.682 1.065 1.75 1.445 3.118 1.37 7.074-.076 3.955 1.597 5.4 2.357 6.693s1.597 3.118 1.597 5.628c0 2.51 1.976 7.15 3.953 9.05 1.977 1.903 3.346 3.348 4.41 6.39s2.965 4.792 4.182 6.01c1.217 1.216 2.13 2.813 2.13 5.17s1.596 4.336 3.497 5.857c1.9 1.52 2.13 2.966 2.357 5.02s1.9 4.488 3.572 6.085c1.673 1.597 1.825 3.042 1.9 5.477.077 2.434 1.293 3.88 2.966 6.617s2.13 4.26 2.13 6.465.987 4.41 2.052 6.084 1.445 2.89 1.597 5.553c.152 2.662 1.065 4.487 2.28 6.54 1.218 2.055 1.37 3.424 1.218 5.25-.152 1.825 1.292 5.856 2.13 7.605.835 1.75.987 2.586 1.215 5.172s.76 4.64 1.445 6.845c.684 2.205.988 3.498.836 6.312-.15 2.814.458 4.03 1.142 6.465.685 2.434.836 4.184.38 6.313-.456 2.13-.152 3.195.608 6.16.76 2.967 1.217 3.5.608 6.01-.608 2.51-.228 4.868.304 7.454.532 2.586.152 2.966-.38 5.476-.533 2.51-.457 3.955.076 6.998s.685 3.5-.456 6.693-.38 2.967.076 6.238c.456 3.27-.152 3.347-.913 5.78s-.912 4.49-.456 6.847.15 3.118-1.065 5.78c-1.217 2.662-1.14 5.248-.76 7.834.38 2.585-.38 3.878-1.673 5.704-1.292 1.825-1.064 3.27-.76 6.16.304 2.89-.153 3.652-1.522 5.4s-1.52 5.173-1.52 7.15c0 1.978-.837 2.738-1.826 4.868-.99 2.13-1.75 2.662-1.75 6.01s.077 3.574-2.052 5.932-2.51 3.803-2.585 6.542c-.076 2.738-1.445 4.868-2.28 6.237s-1.902.913-2.282 4.26c-.38 3.346-1.14 5.323-2.585 6.845-1.445 1.52-3.422 4.107-3.65 7.454s-1.825 3.956-3.574 5.857c-1.75 1.9-1.9 3.802-2.433 5.627-.532 1.826-1.52 2.738-2.813 4.26-1.292 1.52-2.89 2.13-3.574 4.943-.684 2.814-1.37 4.564-3.27 6.39-1.9 1.825-2.737 2.205-3.42 5.4-.685 3.193-.99 4.106-2.662 5.856-1.673 1.75-1.75 3.88-1.52 6.465s-.458 4.032-1.902 6.694c-1.445 2.662-1.14 3.955-1.14 6.313s-1.142 4.03-2.586 6.465c-1.445 2.434-1.14 3.65-1.292 6.01-.152 2.357-.532 2.813-2.357 5.627-1.825 2.813-1.216 6.54-1.75 8.138-.53 1.597-2.736 2.586-4.105 5.628s-1.37 6.237-4.106 8.747c-2.737 2.51-2.51 2.358-3.573 6.313s-1.52 3.65-3.726 5.552-2.433 2.966-2.66 6.085c-.23 3.118-.077 3.5-1.674 5.628s-1.52 4.488-1.52 6.466-.837 3.65-1.902 5.705-1.444 3.12-1.672 5.858-.913 5.933-2.28 7.53c-1.37 1.598-.99 3.423-1.75 5.857s-1.75 3.422-2.813 5.476c-1.065 2.055-1.825 6.39-3.422 8.748s-3.573 3.88-3.877 6.01-.988 4.106-3.498 6.692-3.42 4.26-4.106 6.313c-.684 2.054-1.37 3.423-3.42 4.64-2.054 1.217-3.5 2.662-4.64 5.477-1.14 2.814-1.29 2.51-3.648 4.26s-3.802 2.813-5.17 5.247c-1.37 2.434-1.75 3.423-4.182 4.335-2.433.913-3.65 3.12-5.322 5.096s-1.597 2.738-4.106 3.27c-2.51.534-3.27 2.055-4.942 3.728-1.672 1.673-2.13 2.738-4.41 3.423-2.28.684-5.322 2.205-6.463 4.258s-2.51 2.282-5.323 2.738c-2.813.456-4.182.836-6.083 3.12-1.9 2.28-3.497 2.89-5.854 2.89s-4.03.988-5.854 2.813c-1.825 1.825-2.66 1.977-5.17 2.13-2.51.15-3.65.532-6.083 2.205s-3.802 1.825-6.16 1.825-2.964-.457-5.473 1.75c-2.51 2.206-4.638 2.662-6.615 2.206-1.977-.456-4.258-.304-6.158 1.293-1.9 1.597-3.878 1.672-6.54 1.14-2.66-.533-3.345-.457-6.082.685-2.737 1.14-3.118 1.52-5.626.532-2.51-.99-5.02-.76-7.224.685-2.205 1.445-4.334.076-6.92-.685-2.584-.76-4.03 0-6.614.533-2.585.532-3.65-.38-6.615-1.14s-3.346-.38-6.767 0-3.346-.61-5.094-1.066c-1.75-.456-2.205-1.75-4.866-.99-2.66.762-5.322 0-7.832-1.368-2.51-1.37-4.258-2.662-6.995-1.673-2.737.99-4.03-.456-5.246-1.673-1.216-1.217-2.89-2.206-6.31-2.053-3.422.152-4.715-.76-6.084-2.51s-2.13-2.13-4.942-2.51c-2.812-.38-3.953-.38-6.082-2.662-2.13-2.282-5.17-3.12-8.364-3.803-3.193-.685-3.954-2.966-4.866-3.88-.913-.912-3.65-1.292-6.463-2.66-2.813-1.37-2.965-2.663-3.878-3.88-.912-1.217-1.75-1.217-5.018-2.662s-3.727-1.37-4.64-3.575c-.91-2.206-3.116-2.282-6.158-4.716-3.04-2.435-2.51-3.196-3.345-4.87s-2.053-2.357-4.79-3.878-3.346-2.662-4.182-4.868c-.836-2.206-1.444-2.738-3.877-4.03-2.433-1.294-2.813-1.294-3.726-3.956-.913-2.662-1.14-3.955-3.802-5.857-2.66-1.9-3.042-2.357-3.726-4.64-.685-2.28-1.825-4.867-3.802-6.388-1.977-1.52-3.042-2.662-3.42-4.868-.38-2.206-1.218-4.335-2.662-5.933-1.445-1.597-2.66-3.04-2.585-5.856.076-2.814-2.585-5.02-3.573-6.693-.99-1.672-1.14-2.357-1.52-5.55-.38-3.196-1.14-5.097-2.586-7.075s-1.52-3.727-1.52-5.705.607-2.966-.99-4.944c-1.596-1.978-2.357-3.727-1.596-6.313.76-2.586-.152-3.195-1.75-6.085s-2.128-3.423-2.356-6.465c-.23-3.042-1.292-4.107-2.89-5.628-1.596-1.52-1.52-2.586-2.432-5.02-.913-2.434-1.293-3.5-3.042-5.172-1.75-1.673-2.965-4.26-3.345-7.454-.38-3.195-1.293-2.967-3.194-5.857-1.9-2.89-1.215-1.978-1.9-6.465-.363-2.382-1.345-4.016-2.364-5.462-.9-1.28-1.862-2.377-1.97-4.197-.227-3.88.077-3.956-1.368-5.782-1.445-1.825-2.28-2.814-1.977-5.172s.76-4.335-1.29-7.074-1.978-4.26-1.75-6.77c.228-2.51.152-3.88-1.444-5.933s-2.66-3.195-2.813-6.39c-.152-3.194-1.9-5.02-4.258-7.454-2.357-2.434-2.965-2.282-3.117-5.096-.152-2.814-.836-3.195-2.737-5.324-1.9-2.13-2.66-3.27-2.66-5.628s-2.205-4.03-3.574-6.16-2.28-4.032-2.51-5.934c-.228-1.9-1.216-4.107-2.28-5.324-1.064-1.217-1.597-1.673-2.205-5.096-.607-3.423-.835-4.868-3.497-6.77-2.66-1.9-3.65-2.89-6.31-12.322S2.632 421.58.908 389.432c-1.724-32.148 2.23-60.646 13.077-94.72s23.216-51.316 29.5-61.458c6.286-10.14 7.502-14.198 10.14-23.934 2.635-9.736 11.76-38.233 19.768-52.025s10.848-21.094 13.078-29.917c2.23-8.823 8.516-30.323 22.506-53.648 13.99-23.325 32.34-37.625 46.33-47.26 13.99-9.635 20.48-13.083 24.28-13.235z"/></clipPath><filter id="b"><feOffset in="SourceAlpha" dx="10" dy="-10" result="offset"/><feGaussianBlur in="offset" stdDeviation="20" result="blur"/><feMerge><feMergeNode in="blur"/><feMergeNode in="SourceGraphic"/></feMerge></filter></defs><image clip-path="url(#a)" filter="url(#b)" height="92.61%" width="89.15%" xlink:href="./gx_narrative_product.jpg"/></svg>