<svg xmlns="http://www.w3.org/2000/svg" xmlns:xlink="http://www.w3.org/1999/xlink" viewBox="-20 -40 553 813"><defs><filter id="a"><feOffset in="SourceAlpha" dx="10" dy="-10" result="offset"/><feGaussianBlur in="offset" stdDeviation="20" result="blur"/><feMerge><feMergeNode in="blur"/><feMergeNode in="SourceGraphic"/></feMerge></filter></defs><g filter="url(#a)"><clipPath id="b"><path fill-rule="evenodd" clip-rule="evenodd" fill="none" d="M351 36c.853 3.15 2.095 2.867 3 6l8 4v2c.57.89 2.13 3.372 3 4l4 1c1.975 1.42 1.803 4.272 3 6 .34.49 2.503 2.623 3 3h2c1.963 1.532 3.403 6.23 4 9 4.887 1.545 4.9 3.92 7 8v2l4 3c1.287 1.927.876 4.917 2 7 .614 1.14 3.4 2.857 4 4l1 7c.006.016 1.973 1.95 2 2v2l2 1 1 7h1v3l2 2v3h1v6l2 2v6h1v5c.382.97 2.528 2.23 3 3l1 4h1v5c1.054 2.592 4.772 3.833 6 6l1 7c.632 1.28 4.305 3.894 5 5 1.31 2.084-.07 4.313 1 7h1v2c.444.757 2.61 2.05 3 3l1 9c.373.946 2.565 2.253 3 3v2h1v8l3 4 1 11c.343.675 2.667 2.12 3 3 1.48 3.91-.097 7.766 2 11 1.092 1.684 4.796 4.062 6 6l1 5 5 4c1.326 2.07-.08 4.328 1 7 .873 2.157 3.88 3.253 5 5l2 8 4 3v6h1l1 4c.165.27 2.773 2.405 3 3v6h1v3l2 1 1 9 3 4 1 9h1v3l2 3v6h1v4h1v9h1v4h1c.848 3.016-.97 6.43-1 8h1v4h1c.168.604 1 17 1 17l-2 3c-.615 2.602 1.712 6.246 2 8 .03.18-.68 2.972-1 4h-1c-1.026 3.57 1.413 6.69 1 9l-2 3v12l-2 2v11l-2 2v9l-3 4v7h-1l-2 6h-1v7h-1v2l-3 2-1 9c-.52 1.074-3.496 2.922-4 4-1.41 3.014-.23 6.275-2 9l-3 2v2h-1v5c-.88 2.157-3.872 3.252-5 5l-1 6-5 4-3 9-5 4-1 7-3 2v3h-1l1 5h-1v3l-2 2v3h-1v7c-.3.8-2.744 2.415-3 3v7h-1l-2 6h-1v6h-1v2l-3 2-3 9-4 3-2 8-5 4-1 9-2 1-1 10-3 4-1 10c-.277.61-2.68 2.183-3 3v5h-1l-2 6c-.03.057-1.983 1.962-2 2l-1 6-4 3c-1.47 2.607-.45 5.627-2 8l-5 4-2 7-7 5v3l-8 6c-1.565 2.104-1.83 5.624-4 7h-3l-4 6c-2.03 1.985-3.174.897-5 2l-2 3c-3.068 2.957-7.295 5.79-12 7-.663 2.405-.326 1.803-2 3-2.105 1.73-5.635.675-8 2l-4 5-8 1-3 4h-5v1h-3l-4 3h-7v1h-2l-2 3c-3.79 1.96-4.493-1.52-9 0-.305.103-3.694 2.896-4 3h-6v-1l-5 1v1l-10-1-4 3c-.38.034-2.81-.647-4-1v-1h-8v1l-6-1v-1h-12l-2-2c-3.194-1.025-4.774 1.436-7 1v-1h-3l-4-3c-3.15-1.065-4.862 1.564-7 1v-1h-2l-2-3c-2.662-1.437-7.724-.137-10-2-1.068-1.135-.376-.047-1-2l-9-2c-.91-.47-3.87-4.404-5-5l-7-1-4-5-6-1-5-6-7-2-1-3c-1.696-2.133-4.76-2.326-7-4-1.98-1.48-1.786-4.294-3-6-3.39-4.765-8.066-2.15-10-11-3.38-.865-5.635-2.284-7-5v-3l-7-6c-1.092-1.872-.723-5.274-2-7l-4-2c-1.397-1.93-.81-5.855-2-8l-3-2c-1.294-2.09.077-4.318-1-7-.398-.992-2.493-2.21-3-3v-2l-2-1-1-9c-.343-.837-2.7-2.362-3-3-1.272-2.69.222-7.067 0-8-.02-.083-2.944-3.842-3-4v-8h-1l-2-6h-1v-5h-1v-2l-3-2-3-9-3-2c-1.66-2.544-.848-6.682-2-9l-3-2-1-4h-1v-6h-1v-2c-.442-.756-2.607-2.05-3-3l-1-8c-.3-.633-2.694-2.155-3-3-.884-2.446 1.176-4.96 1-6h-1v-3c-.316-.65-2.682-2.143-3-3v-9h-1v-2c-.436-.75-2.622-2.054-3-3v-5c-1.11-2.72-6.033-5.18-7-7l-1-7-4-3-1-6c-.424-1-2.474-2.194-3-3v-2l-2-1v-2h-1c-1.075-2.685.29-4.906-1-7l-3-2-1-8-2-1c-1.99-2.24-4.77-5.197-6-8l-1-7c-1.65-4.985-3.41-11.8-5-17v-5c-6.258-21.017-9.904-72.326-3-96l2-16c5.647-17.858 9.66-36.61 17-53h1c1.725-3.537 2.158-6.53 4-10h1c1.464-2.742 1.362-5.376 3-8l2-1 2-6c.78-1.234 3.212-2.77 4-4l1-4 2-1v-2l2-1 1-4h1c1.51-2.814 1.62-5.11 3-8h1l1-7c1.706-4.808 4.32-11.335 6-16v-4l2-2v-3h1l2-9 2-2c1.214-2.766.77-5.25 2-8h1c1.404-2.88 1.5-5.176 3-8h1l2-6 2-1 2-6h1c1.505-2.82 1.615-5.11 3-8h1l3-13 8-24 2-2v-3c11.685-26.237 27.793-48.193 50-64l2-3h2l2-3h2l1-2h2l1-2h2l1-2h2l1-2h2l1-2 4-1c.41-.22 3.645-2.847 4-3l12-1v-1h4l4-3h7c.794-.294 2.42-2.75 3-3h9V5h3l2-2h9V2l6-1v1h4v1l5-1V1l11 1c.662-.2 2.488-2.942 5-2l2 3 9-1v1h3l2 2h9c.583.254 2.2 2.705 3 3h9l1 2h2l2 2 5-1c.6.195 2.707 2.813 3 3h2l1 2h5v1l4 1 2 3h2v1l6 1 3 4 6 1 1 2c3.07 2.74 5.105 4.93 10 6z"/></clipPath><image class="product" clip-path="url(#b)" height="92.61%" width="89.15%" xlink:href="gx_narrative_product.jpg"/></g></svg>